<?xml version="1.0" encoding="utf-8"?>

<!DOCTYPE svg PUBLIC "-//W3C//DTD SVG 1.1//EN" "http://www.w3.org/Graphics/SVG/1.1/DTD/svg11.dtd">
<!-- Uploaded to: SVG Repo, www.svgrepo.com, Generator: SVG Repo Mixer Tools -->
<svg height="800px" width="800px" version="1.1" id="_x32_" xmlns="http://www.w3.org/2000/svg" xmlns:xlink="http://www.w3.org/1999/xlink" 
	 viewBox="0 0 512 512"  xml:space="preserve">
<style type="text/css">
	.st0{fill:#fff;}
</style>
<g>
	<path class="st0" d="M499.436,225.905L295.858,24.536c-16.623-16.438-43.428-16.305-59.866,0.328
		c-16.438,16.613-16.294,43.418,0.329,59.856l130.356,128.958H42.329C18.956,213.679,0,232.624,0,255.997
		c0,23.383,18.956,42.328,42.329,42.328h324.347L236.321,427.273c-16.623,16.438-16.767,43.254-0.329,59.867
		c16.438,16.622,43.243,16.766,59.866,0.328l203.578-201.368c8.044-7.963,12.564-18.792,12.564-30.102
		C512,244.685,507.479,233.866,499.436,225.905z"/>
</g>
</svg>