<svg width="455" height="337" viewBox="0 0 455 337" fill="none" xmlns="http://www.w3.org/2000/svg">
<path opacity="0.5" d="M435.968 309.402C434.651 305.559 432.697 304.434 429.714 302.356C428.345 301.326 427.07 300.357 425.591 299.539C426.19 299.359 426.64 299.224 427.184 299.15C431.703 298.239 436.123 298.26 440.537 296.569C445.944 294.669 456.152 289.338 454.582 281.062C453.092 273.122 442.807 277.123 438.543 278.769C435.083 280.082 432.003 281.642 429.058 283.431C429.168 283.218 429.277 283.004 429.332 282.897C430.539 280.549 435.228 274.626 432.384 271.785C429.025 268.468 422.378 274.259 420.502 277.17C417.6 281.833 415.638 289.099 415.544 295.441C415.095 295.577 414.726 296.049 414.546 296.644C414.477 297.026 414.407 297.407 414.337 297.789C407.272 299.467 400.312 301.925 393.086 302.93C389.521 303.463 385.915 303.828 382.27 304.025C388.132 297.297 400.962 279.72 390.906 277.609C385.172 276.451 382.556 284.004 380.593 288.564C379.123 292.165 376.227 298.54 377.105 303.236C376.955 303.281 376.86 303.22 376.805 303.326C376.655 303.371 376.6 303.478 376.506 303.417C376.151 303.614 375.852 303.704 375.687 304.024C375.537 304.069 375.387 304.114 375.143 304.098C374.898 304.081 374.693 304.233 374.489 304.385C371.782 304.479 368.98 304.512 366.328 304.499C358.467 304.523 350.526 304.21 342.709 303.408C343.911 302.054 344.939 300.301 345.896 298.93C348.989 294.39 351.661 289.435 354.374 284.649C356.169 281.402 361.116 272.515 355.166 270.79C349.366 269.02 342.892 278.908 340.873 283.576C338.965 288.029 336.959 296.121 338.173 301.889C337.818 302.086 337.504 302.451 337.339 302.771C329.822 301.879 322.335 300.437 314.971 298.507C313.178 298.055 311.29 297.542 309.456 296.922C311.777 294.869 314.112 292.542 316.378 290.596C320.226 287.543 324.128 284.382 326.961 280.101C329.041 277.039 334.365 265.692 327.787 264.698C321.942 263.753 313.456 273.617 310.323 277.989C307.724 281.568 302.347 289.322 303.126 294.95C289.628 290.178 276.681 283.346 264.967 274.608C266.45 274.432 267.923 273.537 269.435 272.811C274.777 270.299 280.309 267.91 285.38 264.939C289.389 262.559 302.053 255.405 298.166 248.187C294.104 240.572 282.528 247.578 278.271 250.935C273.345 254.855 268.769 259.571 264.723 264.489C263.521 265.843 262.304 267.473 261.521 269.242C261.481 269.074 261.291 268.951 261.251 268.782C260.751 268.031 259.527 267.949 258.899 268.679C258.844 268.786 258.639 268.938 258.584 269.045C258.529 269.152 258.529 269.152 258.475 269.258C248.988 261.112 240.569 251.382 233.692 240.375C236.899 241.032 240.18 240.314 243.526 240.208C248.98 240.188 254.712 238.641 260.115 237.735C264.974 236.902 276.157 232.63 276.975 225.618C277.852 217.506 263.984 219.611 260.119 220.234C254.472 221.124 248.816 224.001 243.529 226.406C239.25 228.327 233.693 230.272 230.061 233.892C221.101 216.838 218.407 197.445 220.987 178.627C235.992 164.453 248.565 143.436 250.134 122.398C259.328 115.839 270.233 113.094 281.504 117.274C296.442 122.695 309.064 135.579 311.397 153.457C313.796 171.947 308.54 193.015 292.146 201.022C283.574 205.138 274.629 204.316 268.079 196.367C261.855 188.772 258.974 178.365 262.251 168.538C263.008 166.325 259.871 165.286 259.114 167.498C254.197 182.24 262.006 201.535 275.694 206.43C289.723 211.404 304.216 199.459 310.582 186.085C316.962 172.436 317.015 153.117 310.925 139.348C303.879 123.25 285.499 111.47 269.668 111.731C262.486 111.91 256.03 114.126 250.14 117.705C250.049 110.246 248.529 102.857 244.981 95.7171C237.361 80.2436 218.997 68.1883 203.066 69.3809C189.352 70.4465 174.543 80.0507 167.213 93.0838C159.992 105.903 158.032 125.978 168.975 137.203C179.592 148.075 198.314 146.131 207.273 133.87C208.6 132.027 206.23 129.494 204.904 131.337C198.913 139.547 189.451 141.947 180.539 139.581C171.137 137.182 165.976 128.996 164.918 118.491C162.892 98.535 176.598 82.9493 191.954 75.9765C206.901 69.3075 223.143 75.1472 234.79 86.9717C243.553 95.7867 246.985 107.832 246.526 120.057C231.094 132.104 221.181 154.845 217.759 176.533C204.599 188.346 188.304 195.421 170.624 195.337C171.598 189.992 170.319 183.612 169.66 178.489C168.871 172.142 168.205 165.307 166.122 159.26C164.67 155.187 159.359 140.642 153.545 145.551C148.604 149.745 150.903 162.763 152.635 168.014C154.638 173.725 156.312 180.076 159.024 185.392C160.669 188.595 161.702 192.253 163.812 195.044C151.834 193.963 140.18 190.53 129.157 185.372C129.212 185.265 129.212 185.265 129.267 185.159C129.322 185.052 129.337 184.777 129.392 184.67C129.64 183.693 128.91 182.65 128.136 182.433C127.986 182.478 127.796 182.355 127.647 182.4C128.619 180.754 129.267 178.754 129.709 176.907C131.477 170.512 132.729 163.64 133.383 156.948C133.842 151.127 133.454 136.361 125.553 136.216C118.047 136.042 118.865 151.942 119.034 157.033C119.279 163.453 120.299 170.091 120.939 176.483C121.135 178.318 121.182 180.198 121.788 181.73C109.141 174.807 97.361 165.458 87.0283 154.77C91.7561 152.714 95.0444 143.605 96.5039 139.287C98.3072 134.053 101.612 120.97 98.0162 115.649C93.8657 109.684 87.7822 120.537 86.5568 124.154C84.7683 129.113 84.2835 134.49 83.7587 139.7C83.4869 142.939 82.7657 146.313 82.3441 149.597C80.9494 148.123 79.7045 146.604 78.3646 145.024C73.195 138.824 68.3397 132.259 63.8937 125.391C64.1131 124.964 64.1826 124.582 64.1573 124.139C69.305 122.497 74.5387 116.5 76.9223 112.354C79.5106 108.056 83.8408 96.9195 79.6313 92.0543C75.3269 87.1275 70.8551 96.3226 69.3448 99.7543C67.0119 104.787 64.5292 109.865 62.5761 115.144C61.9982 116.761 61.1608 118.637 60.7179 120.484C56.1917 113.279 51.9799 105.709 48.0675 98.0479C46.6917 95.3054 45.3559 92.7313 44.075 90.0504C44.0897 89.7754 44.1045 89.5003 43.9694 89.2704C43.9293 89.1021 43.8892 88.9338 43.7541 88.7039C43.8237 88.3221 43.8384 88.0471 43.8131 87.6037C43.773 87.4354 43.8279 87.3287 43.7329 87.2671C43.6928 87.0988 43.6527 86.9304 43.6527 86.9304C47.6168 85.3751 51.1776 79.4312 53.2174 76.2006C55.7508 72.0096 60.265 65.6882 56.5049 60.6875C49.8497 51.959 42.8116 73.2928 40.4622 82.2993C38.7909 78.6537 37.2694 74.9629 35.8977 71.227C33.0592 63.6936 31.4739 55.6923 29.2347 47.9784C29.4941 47.7198 29.7536 47.4611 30.0131 47.2025C30.3823 46.7305 30.5067 46.242 30.4412 45.6303C35.2828 42.3673 39.8478 36.9327 42.0457 31.6701C43.3513 28.3902 44.4917 19.0263 40.2551 17.4165C36.643 16.0696 34.4222 23.5941 33.2157 25.9422C33.106 26.1556 32.9963 26.3691 32.9414 26.4758C32.9432 22.777 32.5103 18.9385 31.7925 14.9153C30.9291 9.94382 28.816 -1.95744 22.0059 0.455536C14.8413 3.06551 15.9861 15.6194 17.0754 21.8759C18.0338 26.909 20.3001 31.3675 21.7627 36.1585C21.883 36.6634 22.0983 37.23 22.2587 37.9033C20.8894 36.8727 19.5052 36.1172 18.0262 35.3C14.8381 33.3743 13.089 32.0973 9.46868 32.7373C5.84837 33.3772 0.875798 35.4168 0.95016 40.4457C1.13009 46.2546 8.85439 49.6999 13.0403 50.4229C17.0363 51.0228 22.3656 51.4915 26.4394 49.7227C29.6452 60.4829 32.2118 71.2552 36.711 81.7159C37.2364 82.9106 37.8569 84.1669 38.3275 85.4683C36.918 84.2694 35.5086 83.0705 33.9747 82.3601C30.3372 80.5697 26.7505 79.6661 22.8241 78.6845C17.8787 77.4687 11.1464 77.513 11.0881 85.0173C11.0339 91.5281 17.8594 95.2442 22.6698 96.2301C29.6133 97.7458 35.5647 95.772 41.0898 91.6716C45.0127 100.051 49.3851 108.295 54.0717 116.173C54.5169 117.031 55.0171 117.783 55.5172 118.534C49.926 115.618 43.9656 113.175 38.132 112.948C33.3723 112.849 26.8871 115.615 28.7908 122.258C30.5742 128.395 38.2478 130.954 43.2669 130.794C48.1911 130.573 52.7798 129.281 57.5984 128.28C58.7419 128.025 59.9803 127.833 61.0837 127.41C66.2999 135.49 72.0751 143.221 78.2744 150.373C76.9558 150.229 75.5823 150.192 74.1941 150.43C69.7847 151.127 64.5503 150.72 60.2866 152.365C55.0694 154.389 51.6355 162.549 57.7816 166.109C64.5523 169.932 73.3481 170.8 79.9512 165.833C81.4385 164.663 84.8222 162.02 86.3431 159.307C90.907 163.975 95.7305 168.384 100.718 172.474C106.276 176.933 112.393 181.043 118.784 184.619C118.579 184.771 118.334 184.755 118.13 184.907C113.811 186.659 108.952 187.492 104.944 189.872C100.581 192.45 94.7949 200.508 98.7703 206.075C102.381 211.12 108.997 209.578 113.089 206.541C116.773 203.807 119.821 200.092 122.26 195.839C123.506 193.66 125.122 191.008 126.099 188.368C138.41 194.22 151.708 198.15 164.964 199.207C164.909 199.314 164.894 199.589 164.84 199.696C163.447 200.927 161.755 202.249 160.787 202.901C158.631 204.633 156.3 205.967 154.184 207.868C150.416 211.258 147.068 215.063 144.181 219.451C141.457 223.519 134.705 234.935 140.467 239.242C146.704 243.857 155.549 232.803 157.992 227.557C160.709 221.777 162.991 215.858 165.043 209.647C165.91 207.221 166.832 204.688 167.604 202.2C168.437 201.318 169.175 200.374 169.669 199.413C181.745 199.562 193.71 197.22 204.642 191.22C208.84 188.962 213.177 185.941 217.34 182.522C216.731 188.388 216.531 193.951 216.985 199.226C217.976 212.819 222.003 225.677 228.156 237.353C227.607 238.42 227.249 239.61 227.04 240.756C225.509 242.751 224.017 244.914 222.581 246.971C218.874 251.966 215.398 257.253 212.301 262.787C209.479 267.786 205.326 282.027 212.057 285.681C218.163 289.073 223.586 276.795 225.455 272.173C227.338 267.275 228.652 262.009 229.382 256.647C229.788 253.638 229.746 250.765 229.908 247.739C229.982 246.364 230.1 244.164 230.353 242.193C230.407 242.086 230.612 241.934 230.667 241.828C237.96 254.243 247.638 265.217 258.454 274.226C256.853 276.602 255.672 279.394 254.615 281.697C252.611 286.089 251.272 290.912 250.952 295.97C250.657 301.471 252.776 308.68 258.47 309.67C264.654 310.693 268.067 301.095 267.872 295.562C267.703 290.471 265.82 285.265 265.107 280.249C265.121 279.974 264.986 279.744 265.001 279.469C270.953 283.899 277.18 287.796 283.395 290.974C289.042 293.783 294.852 296.271 300.732 298.378C299.401 301.214 299.056 305.829 298.898 307.861C298.276 316.707 303.343 324.832 309.77 329.57C315.437 333.816 320.065 326.288 319.111 320.261C318.247 315.289 315.261 310.507 313.649 305.761C313.138 304.291 312.423 302.973 311.653 301.762C320.265 304.218 329.017 305.91 337.948 307.008C338.173 308.293 338.644 309.594 339.02 310.834C340.657 316.023 341.956 321.134 344.247 326.036C346.579 331.106 352.388 337.294 358.065 335.853C364.137 334.385 363.026 326.691 360.57 322.11C357.479 316.547 352.615 311.969 347.572 307.986C348.402 308.097 349.286 308.101 350.115 308.212C358.586 308.726 367.031 308.797 375.491 308.593C375.038 316.126 376.548 322.797 381.188 328.796C384.353 332.983 390.725 337.828 395.621 334.459C401.376 330.65 397.949 324.015 394.634 319.873C392.01 316.605 389.37 313.611 386.226 310.861C384.817 309.662 383.188 308.89 381.654 308.179C382.837 308.093 384.116 308.069 385.354 307.876C395.667 307.023 405.159 304.073 415.15 301.874C415.824 306.722 418.755 311.612 421.31 315.262C423.905 319.08 430.423 324.873 435.045 322.037C438.104 319.041 437.285 313.244 435.968 309.402ZM20.5271 22.5496C19.5392 18.0665 18.4541 10.8166 20.593 6.65422C24.2822 -0.771612 27.7942 11.6102 28.3916 15.1284C30.093 24.6281 30.2205 33.249 26.7023 42.0665C25.7316 40.0138 25.1932 35.3954 24.7627 34.2623C23.4057 30.2513 21.4347 26.6959 20.5271 22.5496ZM15.2994 46.7655C12.947 46.6626 9.55023 45.8821 7.68078 44.1002C4.22672 40.7212 6.09139 37.0925 9.7117 36.4525C13.1274 35.9644 16.5454 38.1817 19.4339 40.1977C21.3729 41.5978 23.1475 43.3182 24.5675 45.2355C24.7026 45.4654 24.9326 45.7569 25.0677 45.9868C25.0677 45.9868 25.1626 46.0484 25.1078 46.1551C22.0972 47.3329 17.9915 46.9465 15.2994 46.7655ZM38.2472 22.8023C39.7934 20.5324 39.6247 21.846 39.8023 24.9495C39.9356 28.8782 38.2249 31.4684 36.1597 34.2556C35.4213 35.1997 33.5059 37.9417 31.6749 40.0269C33.2228 34.0581 34.7307 27.9211 38.2472 22.8023ZM26.0978 92.7616C23.256 92.6258 20.3486 91.8783 17.9348 90.1702C17.2702 89.7391 14.9514 88.0926 14.8605 87.0375C15.8477 85.1164 16.9298 83.2569 17.917 81.3358C18.7462 81.4467 19.6703 81.6193 20.4994 81.7302C24.8203 82.6832 29.3165 84.0344 33.224 86.2845C34.798 87.1633 36.2074 88.3622 37.8215 89.4092C34.2625 91.6543 30.5031 93.0578 26.0978 92.7616ZM43.5342 82.7267C44.2701 79.0772 45.4005 75.3991 46.856 72.0741C47.6385 70.3048 48.5159 68.5972 49.3386 66.9963C50.7498 64.4964 51.0576 62.4192 52.923 65.1946C54.7081 67.6333 53.3158 68.8647 51.9046 71.3646C50.9174 73.2857 49.7403 75.0836 48.6181 76.7748C47.6055 78.2525 45.6206 81.3763 43.5342 82.7267ZM51.3532 125.652C46.2603 127.186 37.9458 128.339 33.7764 123.642C29.7019 119.007 35.6976 116.208 39.0691 116.545C41.3666 116.754 43.7698 117.744 45.943 118.442C50.3842 119.9 54.4964 121.999 58.6487 124.265C56.252 124.987 52.6464 125.352 51.3532 125.652ZM63.9691 120.317C64.7852 117.004 66.9094 113.116 68.0758 110.6C69.6958 106.955 71.6571 99.689 74.6063 96.906C78.2791 93.454 77.8198 99.2751 77.4424 101.734C76.7866 105.72 75.0717 109.304 72.6922 112.456C71.2409 114.788 67.3889 118.835 63.9691 120.317ZM76.398 163.386C71.8855 166.009 66.7861 165.831 62.2942 163.487C60.9207 163.45 59.9311 162.665 59.2305 161.072C57.0467 159.656 57.1057 158.556 59.3272 157.435C61.1435 155.625 61.403 155.366 63.5803 155.071C66.152 154.747 68.8441 154.928 71.4708 154.497C73.8527 154.05 76.1396 153.542 78.4372 153.751C79.5659 153.772 80.6251 154.174 81.7391 154.47C81.8341 154.532 81.929 154.593 81.9691 154.762C82.0746 155.542 82.4946 155.956 83.0241 156.158C83.0642 156.326 83.1993 156.556 83.3343 156.786C83.9842 157.492 76.9571 163.037 76.398 163.386ZM85.5322 151.523C85.4372 151.461 85.4372 151.461 85.5322 151.523C85.7999 149.278 86.3123 147.048 86.4302 144.848C86.797 141.671 86.9739 138.37 87.3407 135.193C87.7074 132.015 88.224 128.793 89.3102 125.94C90.0527 124.002 92.0607 118.617 94.0881 118.366C97.6937 118.002 94.9988 131.622 94.4315 133.958C93.9043 136.462 89.4668 150.518 85.5322 151.523ZM123.808 173.364C123.495 170.03 123.088 166.635 122.775 163.302C122.252 158.408 120.368 146.798 123.351 142.472C127.676 136.027 129.993 147.777 130.186 150.605C130.374 154.427 129.923 158.261 129.336 161.866C128.736 165.745 127.876 176.287 124.948 180.507C124.853 180.445 124.853 180.445 124.758 180.384C123.863 179.661 123.899 174.419 123.808 173.364ZM119.909 192.038C118.428 194.919 116.663 197.616 114.477 199.898C111.608 203.018 104.621 208.732 101.135 203.197C99.2845 200.147 102.636 195.348 104.942 193.571C107.248 191.794 110.174 191.273 112.925 190.354C115.826 189.389 119.126 187.403 122.421 186.41C122.516 186.471 122.611 186.533 122.706 186.595C121.963 188.532 120.677 190.543 119.909 192.038ZM166.406 192.458C164.676 189.913 162.764 185.257 161.834 183.373C159.662 178.976 158.459 173.926 156.737 169.394C155.07 164.755 152.276 156.396 154.608 151.364C154.536 149.04 155.34 148.708 156.87 150.412C158.134 150.662 158.974 151.492 159.389 152.9C160.295 154.341 161.13 156.164 161.736 157.695C163.582 161.739 164.395 165.824 165.138 170.29C166.228 176.547 168.393 185.636 167.615 192.816C167.29 192.463 166.856 192.323 166.406 192.458ZM148.653 233.167C146.456 234.731 142.948 237.863 141.625 232.308C141.264 230.794 142.785 228.08 143.388 226.906C146.847 219.189 153.009 212.371 159.448 207.725C160.471 206.965 161.589 206.268 162.762 205.463C162.239 206.974 161.621 208.423 161.153 209.827C159.763 213.764 158.223 217.745 156.643 221.559C154.435 226.103 152.541 230.282 148.653 233.167ZM236.228 137.142C239.116 132.754 242.369 128.887 246.082 125.603C245.407 130.858 243.998 136.063 242.115 140.96C237.291 153.058 230.473 163.862 221.951 172.564C224.342 160.027 229.166 147.929 236.228 137.142ZM226.1 250.961C225.738 259.549 223.469 268.892 219.345 276.179C218.647 277.291 217.411 280.189 216.063 280.595C211.025 282.023 211.685 277.044 211.887 274.187C212.127 268.792 214.496 264.921 217.029 260.73C219.139 257.118 221.383 253.736 223.817 250.477C224.665 249.319 225.473 247.993 226.376 246.729C226.153 248.149 226.174 249.586 226.1 250.961ZM233.468 235.391C238.559 231.151 246.742 228.775 252.069 226.539C255.883 225.028 259.438 223.777 263.478 223.552C265.002 223.543 266.879 223.338 268.348 223.437C269.641 223.138 270.7 223.54 271.525 224.645C273.603 225.281 273.654 226.168 271.922 227.321C269.115 232.046 261.37 233.568 256.96 234.265C252.551 234.963 248.112 236.21 243.637 236.296C241.72 236.332 237.175 236.8 234.348 236.389C234.173 235.991 233.848 235.638 233.468 235.391ZM276.409 257.269C278.949 254.79 281.678 252.434 284.663 250.813C286.845 249.524 297.1 246.073 294.35 253.396C292.561 258.355 282.616 262.434 278.582 264.372C275.762 265.672 273.036 267.035 270.31 268.398C269.452 268.837 265.429 271.492 264.424 270.983C264.329 270.922 264.329 270.922 264.234 270.86C266.023 265.901 273.719 259.794 276.409 257.269ZM262.616 287.313C263.338 290.343 264.304 293.389 264.127 296.69C263.91 299.822 261.983 305.545 258.611 305.208C252.643 304.751 253.553 295.096 254.483 290.576C255.149 287.308 256.345 284.242 257.826 281.36C258.594 279.866 259.501 277.608 260.528 275.856C260.623 275.917 260.718 275.979 260.813 276.04C261.79 279.805 261.854 284.115 262.616 287.313ZM315.277 277.217C316.794 275.498 326.04 266.126 327.467 269.756C328.287 271.854 325.14 276.5 324.018 278.191C322.212 280.72 320.082 282.896 317.871 284.734C315.605 286.68 313.244 288.564 310.884 290.448C309.342 291.724 307.825 293.444 306.283 294.721C306.283 294.721 306.283 294.721 306.188 294.659C304.995 290.328 313.61 278.982 315.277 277.217ZM310.926 309.829C311.907 312.6 313.298 315.067 314.429 317.793C315.29 320.059 315.315 320.503 314.733 323.114C314.98 325.835 314.107 326.55 311.978 325.026C310.495 325.203 309.396 324.632 308.585 323.252C304.437 319.992 301.846 315.181 301.611 309.478C301.6 308.76 302.361 299.15 303.285 299.322C303.53 299.339 303.775 299.355 303.924 299.31C304.344 299.725 304.874 299.926 305.528 299.639C305.623 299.7 305.718 299.762 305.868 299.717C306.653 300.653 307.342 301.527 308.073 302.57C309.423 304.869 310.08 307.287 310.926 309.829ZM346.459 291.183C345.103 293.576 343.223 297.48 341.023 300.037C340.55 296.031 341.743 290.259 342.57 287.665C343.905 283.835 345.81 280.374 348.46 277.681C350.071 276.023 354.478 272.621 353.599 278.027C353.024 282.35 348.459 287.784 346.459 291.183ZM351.576 316.702C353.2 318.467 355.11 320.418 356.475 322.442C358.421 325.554 359.316 332.68 353.651 331.14C347.891 329.538 344.677 320.765 343.314 315.042C342.993 313.696 341.431 309.837 340.83 307.312C344.558 310.157 348.231 313.109 351.576 316.702ZM386.764 292.568C384.874 295.753 382.659 298.586 380.214 301.126C380.307 298.483 381.627 294.928 382.26 293.204C383.057 291.159 383.855 289.115 384.787 287.301C386.008 284.678 386.261 282.707 389.033 283.225C392.05 283.759 390.603 285.097 389.437 287.613C388.614 289.214 387.737 290.922 386.764 292.568ZM382.722 312.999C386.505 315.738 389.7 319.375 392.595 323.103C393.095 323.854 393.69 324.667 394.19 325.419C393.203 327.34 392.31 329.323 391.323 331.244C390.519 331.576 388.091 330.143 387.372 329.819C384.848 328.324 382.818 325.869 381.293 323.171C378.862 319.033 378.064 314.673 378.015 310.088C379.534 311.073 381.258 311.907 382.722 312.999ZM419.002 291.423C419.748 288.492 420.849 285.364 421.208 284.173C422.323 280.77 423.465 277.81 426.559 275.976C429.04 274.597 429.969 273.776 428.992 276.415C426.86 282.29 422.883 286.825 419.002 291.423ZM439.89 282.061C442.9 280.884 454.2 278.11 450.321 285.413C448.182 289.575 442.051 292.144 438.102 293.424C434.357 294.553 430.726 294.474 426.956 295.159C425.962 295.369 422.038 297.092 419.971 297.174C425.103 289.404 431.717 285.156 439.89 282.061ZM428.064 316.654C425.66 315.665 423.455 312.811 422.2 310.574C420.714 308.045 418.364 304.243 417.766 300.725C417.766 300.725 417.861 300.786 417.916 300.68C418.161 300.696 418.5 300.774 418.745 300.791C420.933 301.214 423.241 302.142 425.195 303.267C428.193 305.069 431.611 307.287 432.943 310.854C434.26 314.697 432.245 318.371 428.064 316.654Z" fill="#F4900C"/>
</svg>
