<?xml version="1.0" encoding="utf-8"?>
<!-- Uploaded to: SVG Repo, www.svgrepo.com, Generator: SVG Repo Mixer Tools -->
<svg fill="#000000" width="800px" height="800px" viewBox="-6.5 0 32 32" version="1.1" xmlns="http://www.w3.org/2000/svg">
<title>clock</title>
<path d="M9.28 25.28c-5.12 0-9.28-4.16-9.28-9.28s4.16-9.28 9.28-9.28 9.28 4.16 9.28 9.28-4.16 9.28-9.28 9.28zM9.28 8.4c-4.2 0-7.6 3.4-7.6 7.6s3.4 7.6 7.6 7.6 7.6-3.4 7.6-7.6-3.4-7.6-7.6-7.6zM12.36 19.92c-0.2 0-0.44-0.080-0.6-0.24l-3.080-3.080c-0.16-0.16-0.24-0.36-0.24-0.6v-5.8c0-0.48 0.36-0.84 0.84-0.84s0.84 0.36 0.84 0.84v5.48l2.84 2.84c0.32 0.32 0.32 0.84 0 1.2-0.16 0.12-0.4 0.2-0.6 0.2z"></path>
</svg>