<svg width="90" height="90" viewBox="0 0 70 70" fill="none" xmlns="http://www.w3.org/2000/svg">
<path d="M34.6481 22.8721H17.1162L15.1656 26.2129H34.6481V22.8721Z" fill="white"/>
<path d="M63.6298 44.3023C63.6298 47.5389 61.0087 50.16 57.7731 50.16C54.5365 50.16 51.9144 47.5389 51.9144 44.3023C51.9144 41.0667 54.5365 38.4446 57.7731 38.4446C61.0087 38.4446 63.6298 41.0667 63.6298 44.3023ZM60.29 44.3023C60.29 42.9131 59.1613 41.7834 57.7721 41.7834C56.3819 41.7834 55.2532 42.9121 55.2532 44.3023C55.2532 45.6925 56.3819 46.8212 57.7721 46.8212C59.1603 46.8212 60.29 45.6915 60.29 44.3023Z" fill="#daa520"/>
<path d="M51.9046 39.352C48.3888 43.2876 50.0828 43.9522 24.9058 43.9522C24.9058 43.9522 29.5454 43.7094 26.5212 40.6842C23.957 40.6842 25.4259 40.6842 22.4292 40.6842C23.2236 41.6841 23.7152 42.9298 23.7152 44.3032C23.7152 47.5398 21.0931 50.161 17.8585 50.161C14.6219 50.161 11.9998 47.5398 11.9998 44.3032C11.9998 42.9307 12.4894 41.6831 13.2818 40.6842C12.0194 40.6842 10.9527 40.6842 10.1937 40.6842C3.51404 40.6842 14.6474 27.3259 14.6474 27.3259H34.6854C34.6854 27.3259 22.44 40.6842 34.6854 40.6842C35.7039 40.6842 36.404 40.6842 36.8769 40.6842C36.8769 40.6842 55.035 39.1387 43.997 21.3315L42.2007 19.5323H38.9494V18.4194C38.9494 18.4194 43.8721 16.3508 44.289 18.4194C44.7029 20.487 55.2159 33.0745 55.2159 33.0745C58.8772 32.2142 61.7235 34.4676 64.1667 38.4445C59.7188 37.072 55.4204 35.4164 51.9046 39.352ZM20.3744 44.3023C20.3744 42.913 19.2467 41.7834 17.8565 41.7834C16.4663 41.7834 15.3366 42.9121 15.3366 44.3023C15.3366 45.6925 16.4663 46.8211 17.8565 46.8211C19.2457 46.8211 20.3744 45.6915 20.3744 44.3023Z" fill="#daa520"/>
<path d="M5.83333 36.8784H7.50275V40.0128H5.83333V36.8784Z" fill="#daa520"/>
<path d="M47.7646 20.6353V17.501L45.3125 18.2197L46.0961 20.6353H47.7646Z" fill="#daa520"/>
</svg>
