<svg width="24" height="25" viewBox="0 0 24 25" fill="none" xmlns="http://www.w3.org/2000/svg">
<path fill-rule="evenodd" clip-rule="evenodd" d="M16.9394 3.5C18.2804 3.5 19.5704 4.03 20.5194 4.981C21.4694 5.93 22.0004 7.21 22.0004 8.55V16.45C22.0004 19.24 19.7304 21.5 16.9394 21.5H7.0604C4.2694 21.5 2.0004 19.24 2.0004 16.45V8.55C2.0004 5.76 4.2594 3.5 7.0604 3.5H16.9394ZM18.5304 10.04L18.6104 9.96C18.8494 9.67 18.8494 9.25 18.5994 8.96C18.4604 8.811 18.2694 8.72 18.0704 8.7C17.8604 8.689 17.6604 8.76 17.5094 8.9L13.0004 12.5C12.4204 12.981 11.5894 12.981 11.0004 12.5L6.5004 8.9C6.1894 8.67 5.7594 8.7 5.5004 8.97C5.2304 9.24 5.2004 9.67 5.4294 9.97L5.5604 10.1L10.1104 13.65C10.6704 14.09 11.3494 14.33 12.0604 14.33C12.7694 14.33 13.4604 14.09 14.0194 13.65L18.5304 10.04Z" fill="white"/>
</svg>
