<svg width="30" height="30" viewBox="0 0 30 30" fill="none" xmlns="http://www.w3.org/2000/svg">
<path d="M21.25 4.37494C21.25 4.20918 21.1842 4.05021 21.0669 3.933C20.9497 3.81579 20.7908 3.74994 20.625 3.74994H17.5C15.9264 3.67156 14.3857 4.21918 13.2147 5.27317C12.0436 6.32715 11.3372 7.80181 11.25 9.37494V12.7499H8.125C7.95924 12.7499 7.80027 12.8158 7.68306 12.933C7.56585 13.0502 7.5 13.2092 7.5 13.3749V16.6249C7.5 16.7907 7.56585 16.9497 7.68306 17.0669C7.80027 17.1841 7.95924 17.2499 8.125 17.2499H11.25V25.6249C11.25 25.7907 11.3158 25.9497 11.4331 26.0669C11.5503 26.1841 11.7092 26.2499 11.875 26.2499H15.625C15.7908 26.2499 15.9497 26.1841 16.0669 26.0669C16.1842 25.9497 16.25 25.7907 16.25 25.6249V17.2499H19.525C19.664 17.2519 19.7997 17.2075 19.9106 17.1238C20.0215 17.04 20.1014 16.9217 20.1375 16.7874L21.0375 13.5374C21.0624 13.4451 21.0657 13.3483 21.0473 13.2544C21.0288 13.1606 20.9891 13.0722 20.9311 12.9962C20.8732 12.9201 20.7985 12.8583 20.713 12.8156C20.6274 12.773 20.5331 12.7505 20.4375 12.7499H16.25V9.37494C16.2811 9.06554 16.4264 8.77883 16.6575 8.57081C16.8887 8.36279 17.189 8.24839 17.5 8.24994H20.625C20.7908 8.24994 20.9497 8.1841 21.0669 8.06689C21.1842 7.94968 21.25 7.7907 21.25 7.62494V4.37494Z" fill="#F9FAFB"/>
</svg>
