<svg width="409" height="284" viewBox="0 0 409 284" fill="none" xmlns="http://www.w3.org/2000/svg">
<g opacity="0.3">
<path d="M550.675 156.9L551.472 155.241L551.654 159.325C508.668 147.822 465.534 137.372 420.719 138.249C379.557 139.137 337.302 142.472 297.012 151.341C220.036 168.341 147.074 205.335 86.0861 254.941C82.9218 257.513 84.041 250.622 85.8517 249.148C146.49 199.939 218.412 163.224 294.68 145.475C336.991 135.634 381.664 131.955 425.051 131.333C469.384 130.737 512.127 141.241 554.654 152.639C556.098 153.013 555.163 156.052 554.842 156.747L554.02 158.412C552.132 162.341 548.758 160.912 550.643 156.782L550.675 156.9Z" fill="#A2D1BA"/>
<path d="M101.592 239.201C90.071 234.048 76.329 239.53 66.5694 245.873C58.2725 251.24 44.1201 263.044 40.8527 272.895L40.3536 269.707C51.1724 272.995 67.0352 270.696 78.0579 269.162C83.7466 268.348 89.9008 267.663 94.9228 264.644C98.4521 262.582 116.987 239.792 104.65 238.027C101.75 237.612 104.344 230.832 106.667 231.173C123.172 233.545 106.866 260.303 100.101 266.654C92.9254 273.368 83.8271 274.894 74.3609 276.086C63.2783 277.585 48.0873 279.551 37.2985 276.281C36.1939 275.943 36.6264 273.773 36.7754 273.1C40.6652 261.409 53.7222 249.112 63.3419 241.869C74.3169 233.629 91.1942 226.318 104.548 232.349C106.882 233.397 103.895 240.13 101.554 239.059L101.592 239.201Z" fill="#A2D1BA"/>
<path d="M163.059 200.368C160.935 192.444 148.215 189.437 141.48 187.388C135.438 185.559 121.867 180.423 115.629 183.539C112.773 184.989 114.461 178.046 116.422 177.039C123.791 173.315 137.268 178.578 144.385 180.727C151.997 183.023 164.867 186.395 167.228 195.397C167.817 197.597 163.747 203.505 162.94 200.4L163.059 200.368Z" fill="#A2D1BA"/>
<path d="M145.14 186.762C151.374 179.184 135.44 169.483 130.686 167.258C123.373 163.856 115.392 162.131 107.328 162.209C97.0667 162.423 79.1001 168.885 72.2173 177.448L73.0241 171.755C83.3927 175.823 94.6703 180.255 105.32 183.385C114.181 186.082 140.649 196.966 147.139 184.857C149.16 181.045 152.569 182.413 150.517 186.487C144.76 197.36 131.385 198.535 120.313 195.721C103.237 191.051 86.465 185.333 70.0922 178.601C68.0532 177.803 70.1606 173.841 70.8992 172.908C75.8621 166.735 86.4705 161.763 93.5796 158.869C103.929 154.861 115.333 154.487 125.923 157.809C140.213 161.942 159.481 175.947 146.6 191.644C143.555 195.325 143.515 189.023 145.332 186.913L145.14 186.762Z" fill="#A2D1BA"/>
<path d="M211.648 173.835C214.575 175.865 214.541 178.765 214.532 182.14C214.595 191.834 211.432 202.265 209.811 211.827C207.333 225.11 201.38 237.5 192.56 247.736C189.383 251.3 189.314 245.082 191.292 243.005C198.711 234.125 203.718 223.484 205.83 212.107C206.93 206.184 213.809 183.981 208.796 180.507C206.578 178.946 209.946 172.593 211.813 173.791L211.648 173.835Z" fill="#A2D1BA"/>
<path d="M207.657 219.782C207.598 218.048 194.362 225.322 193.271 226.172C188.249 230.29 184.33 235.592 181.865 241.601C180.021 245.696 170.672 267.951 177.642 269.456C179.365 269.831 194.328 259.255 194.416 259.206C201.642 253.72 218.656 229.892 206.706 221.812C204.5 220.298 207.832 213.904 209.729 215.119C221.02 222.819 212.083 241.313 207.109 249.999C203.225 257.141 197.597 263.185 190.749 267.567C185.518 270.845 177.972 277.405 171.771 278.484C170.872 278.724 170.626 277.523 170.532 276.888C167.693 256.833 184.54 209.293 211.384 213.915C211.944 214.019 212.122 215.061 212.146 215.435L212.175 216.112C212.262 218.421 207.839 223.866 207.676 219.853L207.657 219.782Z" fill="#A2D1BA"/>
<path d="M260.281 156.367C262.385 143.405 240.061 129.915 231.176 124.385C226.597 121.353 221.749 118.748 216.694 116.602C213.388 115.333 209.958 115.212 207.204 112.882C205.456 111.373 208.756 104.86 210.999 106.795C213.241 108.729 217.021 108.832 219.711 109.886C223.08 111.311 226.34 112.98 229.466 114.879C236.616 118.983 243.383 123.72 249.687 129.034C257.754 135.772 266.494 142.938 264.663 154.178C264.233 156.829 259.485 160.967 260.155 156.274L260.281 156.367Z" fill="#A2D1BA"/>
<path d="M244.578 128.603C255.92 108.298 227.991 96.0302 213.018 94.7431C201.828 93.7607 186.091 94.3518 175.342 98.0432L177.707 91.7302C179.968 96.1952 185.191 99.1313 189.136 102.309C195.237 107.59 201.689 112.451 208.449 116.859C213.495 119.893 240.117 134.945 244.605 126.339C246.619 122.503 250.034 123.895 248.006 127.963C241.766 139.777 229.428 135.172 219.115 130.837C209.377 126.545 200.279 120.929 192.079 114.146C186.462 109.643 177.307 104.616 173.939 97.9124C173.547 96.7486 173.567 95.4852 173.998 94.3353C174.429 93.1853 175.243 92.2192 176.303 91.5994C184.316 88.7678 193.652 88.7 202.077 88.0655C213.93 87.1713 225.954 88.3357 236.41 94.4333C250.946 102.886 255.21 117.286 247.022 131.954C244.606 136.278 242.925 131.708 244.609 128.721L244.578 128.603Z" fill="#A2D1BA"/>
<path d="M325.765 142.649C324.497 153.256 320.996 163.475 315.495 172.631C309.575 182.99 299.86 190.918 294.116 201.178C291.694 205.479 289.996 200.939 291.703 197.946C295.166 191.947 300.774 187.047 305.092 181.681C313.469 170.841 320.041 158.66 321.513 144.853C321.826 142.234 326.447 138.004 326.022 142.758L325.765 142.649Z" fill="#A2D1BA"/>
<path d="M306.609 182.896C295.785 174.767 284.731 191.7 280.68 200.138C276.576 209.042 273.588 218.418 271.782 228.054L269.446 226.144C276.528 219.176 286.533 216.495 294.362 210.518C299.169 206.695 318.1 184.533 305.424 180.273C303.136 179.492 305.932 172.708 308.441 173.557C320.037 177.473 312.35 194.39 308.057 201.549C304.239 207.717 299.205 213.042 293.263 217.202C285.788 222.704 276.306 225.447 269.661 231.868C268.136 233.366 267.029 231.508 267.324 229.958C270.309 215.366 274.601 200.347 283.277 187.88C288.919 179.7 299.414 168.344 309.588 176.038C311.771 177.659 308.343 183.978 306.564 182.731L306.609 182.896Z" fill="#A2D1BA"/>
<path d="M368.005 136.706C369.941 133.145 354.038 118.263 351.747 115.86C343.946 107.657 335.359 104.278 325.9 98.8764C323.597 97.5666 326.79 91.0319 328.918 92.1605C335.893 96.1483 343.141 98.6938 349.473 103.97C354.322 108.259 358.82 112.93 362.925 117.936C368.909 124.75 375.257 131.036 370.441 139.932C368.062 144.297 366.375 139.703 368.005 136.706Z" fill="#A2D1BA"/>
<path d="M347.951 114.468C354.465 113.99 352.096 102.405 350.802 99.2777C349.617 96.897 348.011 94.7504 346.062 92.9416C340.993 88.2171 334.855 84.7898 328.174 82.9527C318.788 80.0926 301.026 78.2348 291.847 83.4325L294.459 77.6619C295.688 82.2511 302.859 87.2513 306.187 90.4924C310.791 94.527 315.605 98.3149 320.61 101.84C323.247 103.923 325.369 106.448 327.865 108.669C333.545 113.688 340.147 114.861 347.474 116.092L344.956 122.877L344.45 122.784C342.282 122.453 344.746 115.657 347.45 116.099L347.98 116.185C350.101 116.529 347.684 123.312 345.463 122.97C340.162 122.108 334.099 121.527 329.166 118.918C323.705 115.945 319.726 110.368 314.758 106.679C309.943 103.304 305.385 99.576 301.121 95.5262C297.672 92.1148 291.395 87.6103 290.121 82.8555C289.941 81.7434 290.092 80.6028 290.557 79.5765C291.021 78.5501 291.778 77.6835 292.732 77.0849C300.217 72.8483 314.97 73.129 323.126 74.5188C334.967 76.4169 346.988 81.6388 353.733 92.0522C359.002 100.174 359.155 120.518 345.901 121.483C343.244 121.688 345.433 114.813 347.918 114.629L347.951 114.468Z" fill="#A2D1BA"/>
<path d="M424.397 135.515C424.911 149.449 418.057 162.568 411.713 174.562C408.41 181.226 404.169 187.383 399.12 192.845C394.787 197.301 387.756 200.96 384.441 206.184C381.815 210.387 380.183 205.905 382.005 202.958C387.071 194.805 396.838 190.007 402.612 182.223C410.777 171.161 420.414 153.291 419.909 139.202C419.822 136.893 424.269 131.442 424.384 135.467L424.397 135.515Z" fill="#A2D1BA"/>
<path d="M412.075 170.231C400.278 175.496 386.992 178.803 378.886 189.519C372.373 198.135 368.299 208.101 364.291 218.024L364.494 214.242C367.751 217.882 377.806 218.129 382.112 217.736C390.741 216.92 397.394 211.664 402.27 204.881C407.424 197.719 411.723 189.164 411.833 180.209C411.843 175.136 410.618 172.269 411.224 167.34C411.584 164.708 416.242 160.519 415.733 165.245C415.243 169.281 417.045 173.64 416.859 177.772C416.544 182.163 415.621 186.489 414.118 190.626C411.342 198.436 407.223 205.701 401.946 212.092C397.521 217.724 391.395 221.776 384.48 223.643C378.354 225.284 365.383 225.413 360.765 220.287C359.953 219.338 360.61 217.438 360.992 216.499C365.372 205.691 369.551 194.226 376.734 184.797C385.526 173.237 400.464 169.285 413.058 163.68C416.023 162.353 414.274 169.261 412.146 170.212L412.075 170.231Z" fill="#A2D1BA"/>
</g>
</svg>
