<svg width="65" height="65" viewBox="0 0 54 49" fill="none" xmlns="http://www.w3.org/2000/svg">
<path d="M48.2287 43.7107L48.2447 43.7042C48.2447 43.7042 36.8147 32.1045 35.6932 30.983C34.998 30.778 30.9317 28.9899 30.8612 25.6285C32.5964 23.6403 35.1197 21.7305 38.8464 21.6928C38.8527 21.6897 38.872 21.688 38.8817 21.688C40.5672 21.7337 42.2687 21.1745 43.6225 19.9913C43.717 19.9081 43.9397 19.6814 43.9397 19.6814L52.7937 8.52297C53.0539 8.19511 53.0273 7.7244 52.7319 7.42793V7.42793C52.4034 7.09826 51.8674 7.10543 51.5478 7.44376L41.4058 18.1814C41.0424 18.5662 40.4329 18.5744 40.0592 18.1996V18.1996C39.6937 17.833 39.6941 17.2397 40.0602 16.8736L50.628 6.30652C50.8999 6.03466 50.8993 5.59367 50.6266 5.32258V5.32258C50.3551 5.05258 49.9163 5.05323 49.6455 5.32404L38.9013 16.0704C38.5932 16.3786 38.0935 16.3785 37.7855 16.0702V16.0702C37.4776 15.7622 37.4777 15.2629 37.7857 14.9549L48.4794 4.2604C48.7788 3.96099 48.7786 3.47549 48.4789 3.17639V3.17639C48.1796 2.87772 47.6949 2.87796 47.396 3.17692L36.7928 13.7795C36.4341 14.1381 35.8528 14.1384 35.4938 13.7801V13.7801C35.1263 13.4132 35.1355 12.8148 35.5143 12.4595L46.4269 2.22196C46.7377 1.93039 46.7455 1.43947 46.4442 1.13813V1.13813C46.175 0.868889 45.7473 0.842436 45.4469 1.07644L34.7544 9.40659C34.7544 9.40659 34.3476 9.7494 34.2066 9.89212C32.6668 11.431 32.0051 13.5195 32.2263 15.531C32.0708 18.0824 31.2458 19.977 30.1756 21.4173C13.223 4.83237 4.83 3.12883 2.25866 3.07852C1.67573 3.06712 1.15937 3.36377 0.75 3.77892V3.77892C0.75 3.77892 14.813 17.8804 23.5024 26.5866C20.4535 29.6388 5.75521 44.3371 5.75521 44.3371L5.75672 44.3403C5.7439 44.353 5.7279 44.3578 5.71274 44.3738C4.66252 45.4249 4.66652 47.1264 5.71439 48.1757C6.76295 49.2251 8.46941 49.2251 9.51549 48.1789C9.53231 48.1629 9.53714 48.1453 9.54679 48.1356L9.54996 48.1388C9.54996 48.1388 24.2668 33.4263 27.298 30.3964C28.8872 31.9875 29.9479 33.0497 30.1563 33.2579C31.4444 34.5526 44.4124 47.5205 44.4124 47.5205H44.4284C44.4284 47.5365 44.4427 47.5509 44.4572 47.5574C45.5051 48.6132 47.2257 48.6132 48.272 47.5574C49.3342 46.5111 49.3342 44.7967 48.272 43.7427C48.2591 43.7265 48.2447 43.7202 48.2287 43.7107Z" fill="#daa520"/>
</svg>
