<svg width="40" height="120" viewBox="0 0 40 120" fill="none" xmlns="http://www.w3.org/2000/svg">
<path d="M22.1816 118.723C22.7269 118.043 22.7009 117.52 22.7269 116.683C22.7529 116.291 22.7789 115.925 22.7529 115.533C22.8568 115.637 22.9347 115.716 23.0126 115.82C23.7137 116.657 24.2331 117.572 25.0641 118.304C26.051 119.219 28.2324 120.762 29.5568 119.559C30.8293 118.409 28.8816 116.709 28.0766 116.003C27.4273 115.428 26.7781 114.958 26.1029 114.539C26.1548 114.539 26.2068 114.539 26.2327 114.539C26.8041 114.539 28.4401 114.879 28.6219 113.99C28.8297 112.944 26.9858 112.186 26.2327 112.108C25.0382 112.003 23.48 112.369 22.3114 113.023C22.2335 112.944 22.1037 112.918 21.9738 112.944C21.8959 112.97 21.818 112.997 21.7401 113.023C20.5975 111.742 19.325 110.565 18.2862 109.179C17.7668 108.499 17.2734 107.794 16.806 107.061C18.7277 107.558 23.4541 108.343 22.649 106.042C22.1816 104.734 20.4936 104.996 19.4289 105.074C18.5978 105.153 17.0916 105.231 16.3385 105.911C16.3126 105.885 16.3126 105.859 16.2866 105.859C16.2606 105.833 16.2346 105.833 16.2346 105.806C16.1567 105.754 16.1048 105.702 16.0269 105.702C16.0009 105.676 15.975 105.649 15.949 105.597C15.923 105.545 15.8711 105.519 15.8191 105.493C15.4815 104.944 15.144 104.368 14.8323 103.819C13.8974 102.198 13.0145 100.525 12.2354 98.8253C12.625 98.9299 13.0664 98.9561 13.43 99.0083C14.6246 99.1652 15.8451 99.1914 17.0397 99.2437C17.8447 99.2698 20.0521 99.3483 19.6626 97.9364C19.299 96.5506 16.7281 96.263 15.6374 96.3414C14.5986 96.4199 12.8846 96.8643 11.9757 97.7272C11.8978 97.6749 11.7939 97.6487 11.716 97.6487C10.9889 96.0015 10.3656 94.302 9.84626 92.5764C9.71642 92.158 9.58656 91.7135 9.48269 91.269C10.1319 91.5305 10.8331 91.7658 11.4563 92.0273C12.4691 92.4979 13.5079 92.9686 14.6246 93.0993C15.4296 93.2039 18.1304 93.0993 17.5331 91.6351C17.0137 90.3278 14.2091 89.6218 13.0405 89.4388C12.0796 89.2819 10.028 88.9943 9.09315 89.7525C8.36602 86.4581 8.08036 83.0591 8.28811 79.7124C8.49587 80 8.83346 80.2091 9.14509 80.4445C10.2358 81.2811 11.3265 82.1701 12.4691 82.9022C13.378 83.4774 16.1827 85.3338 17.0397 83.765C17.9486 82.1178 15.2998 80.4706 14.1831 79.9477C12.8846 79.3463 11.4823 78.9018 10.106 78.5881C9.71642 78.4835 9.27494 78.405 8.85944 78.4312C8.88541 78.405 8.88541 78.3528 8.91138 78.3266C8.98929 78.1436 8.85944 77.8821 8.65169 77.8298C8.62572 77.8298 8.57377 77.8037 8.54781 77.8037C8.52184 77.8037 8.52183 77.8037 8.49587 77.8037C8.85943 74.9799 9.6385 72.2084 10.8331 69.6199C11.0928 70.352 11.6122 70.9533 12.0277 71.6331C12.6769 72.7574 13.6377 73.7772 14.4428 74.7969C15.1699 75.712 17.2734 77.5684 18.6498 76.9931C20.2339 76.3133 18.2083 73.6726 17.637 72.9405C16.806 71.8685 15.6114 71.0056 14.5467 70.169C13.6897 69.4892 12.6769 68.5479 11.5862 68.1818C13.6377 64.5213 16.8579 61.9067 20.5975 60.4425C24.9603 62.0375 30.2839 62.4035 34.3091 60.4948C36.5944 61.6976 38.3863 63.6585 38.9576 66.43C39.7367 70.0905 38.8797 74.0648 35.8932 76.4441C32.8029 78.9018 28.3362 80.0523 24.9343 77.5161C23.1684 76.1826 22.2595 74.2478 22.9347 72.0515C23.5839 69.9598 25.142 68.2603 27.3234 67.8942C27.8169 67.8158 27.6351 67.0575 27.1417 67.136C23.8696 67.6851 21.2727 71.3455 21.9998 74.6923C22.7529 78.1174 26.6483 79.8431 29.8425 79.7385C33.0886 79.6078 36.6204 77.5684 38.4122 74.8491C40.5157 71.6854 40.4898 66.6392 38.5681 63.3971C37.6851 61.9329 36.5165 60.8347 35.1661 59.998C36.5165 59.1875 37.6851 58.0894 38.5681 56.599C40.4898 53.383 40.5157 48.3106 38.4122 45.1469C36.5944 42.4277 33.0886 40.3883 29.8425 40.2576C26.6483 40.1268 22.7529 41.8525 21.9998 45.3038C21.2727 48.6505 23.8436 52.311 27.1417 52.8601C27.6351 52.9385 27.8169 52.1803 27.3234 52.1018C25.1161 51.7358 23.5579 50.0363 22.9347 47.9446C22.2595 45.7483 23.1424 43.8135 24.9343 42.48C28.3362 39.9438 32.8029 41.1204 35.8932 43.552C38.8797 45.9313 39.7367 49.9056 38.9576 53.5661C38.3863 56.3114 36.5944 58.2985 34.3091 59.5013C30.2839 57.5926 24.9603 57.9586 20.5975 59.5535C16.8839 58.0894 13.6637 55.4747 11.5862 51.8142C12.6769 51.4482 13.6897 50.5069 14.5467 49.8271C15.6114 48.9904 16.78 48.1276 17.637 47.0556C18.2083 46.3235 20.2339 43.6827 18.6498 43.0029C17.2994 42.4277 15.1959 44.2841 14.4428 45.1992C13.6378 46.2189 12.6769 47.2386 12.0277 48.3629C11.6381 49.0427 11.0928 49.6441 10.8331 50.3762C9.61254 47.7877 8.85943 45.0162 8.49587 42.1924C8.52184 42.1924 8.52184 42.1924 8.54781 42.1924C8.57378 42.1924 8.62572 42.1662 8.65169 42.1662C8.85944 42.114 8.96332 41.8525 8.91138 41.6695C8.88541 41.6433 8.88541 41.591 8.85944 41.5649C9.27494 41.591 9.71642 41.5126 10.106 41.408C11.4823 41.0943 12.8846 40.6236 14.1831 40.0484C15.2998 39.5255 17.9486 37.8783 17.0397 36.231C16.1827 34.6623 13.3781 36.5187 12.4691 37.0939C11.3265 37.826 10.2358 38.7411 9.14509 39.5516C8.83346 39.7869 8.49587 39.9961 8.28812 40.2837C8.0544 36.937 8.36602 33.5118 9.09315 30.2435C10.028 31.0018 12.0796 30.7142 13.0405 30.5573C14.2091 30.3743 16.9878 29.6683 17.5331 28.361C18.1304 26.8707 15.4296 26.7661 14.6246 26.8968C13.5079 27.0537 12.4691 27.5243 11.4563 27.9688C10.8331 28.2564 10.1319 28.4656 9.48269 28.7271C9.58657 28.2826 9.71642 27.8642 9.84626 27.4197C10.3656 25.6941 10.9889 23.9946 11.716 22.3473C11.8199 22.3473 11.8978 22.3212 11.9757 22.2689C12.8846 23.1579 14.5986 23.6024 15.6374 23.6547C16.7281 23.7331 19.273 23.4455 19.6626 22.0597C20.0521 20.6478 17.8447 20.7001 17.0397 20.7524C15.8451 20.8047 14.6246 20.8309 13.43 20.9877C13.0664 21.04 12.625 21.0662 12.2354 21.1708C13.0145 19.4713 13.8974 17.7979 14.8323 16.1768C15.1699 15.6016 15.4816 15.0525 15.8192 14.5035C15.8711 14.4773 15.923 14.4512 15.949 14.3989C15.975 14.3727 16.0009 14.3466 16.0269 14.2943C16.1048 14.2681 16.1567 14.242 16.2347 14.1897C16.2606 14.1635 16.2866 14.1636 16.2866 14.1374C16.3126 14.1113 16.3385 14.0851 16.3385 14.0851C17.0916 14.7388 18.5978 14.8434 19.4289 14.9218C20.4936 15.0002 22.1816 15.2617 22.649 13.9544C23.4541 11.6535 18.7277 12.464 16.806 12.9347C17.2734 12.2026 17.7668 11.4966 18.2862 10.8168C19.325 9.43107 20.5975 8.25449 21.7401 6.97332C21.818 6.99946 21.8959 7.02561 21.9738 7.05175C22.1037 7.0779 22.2075 7.05176 22.3114 6.97332C23.48 7.62697 25.0122 7.99302 26.2327 7.88844C26.9858 7.81 28.8297 7.05175 28.6219 6.0059C28.4401 5.11693 26.8041 5.45683 26.2327 5.45683C26.1808 5.45683 26.1289 5.45683 26.1029 5.45683C26.7781 5.06464 27.4273 4.56785 28.0766 3.99263C28.8816 3.28668 30.8033 1.58718 29.5568 0.436739C28.2324 -0.765992 26.0769 0.802784 25.0641 1.69176C24.2591 2.42386 23.7138 3.36512 23.0126 4.17566C22.9347 4.2541 22.8568 4.35869 22.7529 4.46328C22.7789 4.07108 22.7529 3.70503 22.7269 3.31283C22.701 2.45 22.7269 1.95323 22.1816 1.27342C21.6362 0.593619 20.6754 -0.216926 19.7665 0.332147C18.7277 0.985804 19.0134 2.94679 19.3769 3.88805C19.7405 4.77703 20.2858 5.92746 21.0909 6.58112C19.5068 8.38522 17.8447 10.0586 16.4684 12.098C16.3126 12.3333 16.1567 12.5948 15.975 12.8301C16.0269 12.4118 16.0788 11.9934 16.0269 11.6012C15.923 10.6599 15.6633 9.82327 15.3777 8.90815C15.0141 7.75771 14.2091 6.37195 12.8327 7.15634C11.6381 7.83615 11.768 9.64025 12.1575 10.7384C12.7029 12.3333 13.7676 13.353 15.1699 14.059C14.1052 15.7585 13.1184 17.5364 12.2354 19.3405C12.1315 19.5235 12.0536 19.7066 11.9757 19.8896C11.8459 18.4254 11.5862 16.9351 10.937 15.7062C10.3916 14.7126 9.11913 13.6668 8.13231 14.7649C7.22339 15.7846 7.66486 17.641 8.28812 18.6607C8.91138 19.6543 9.69045 20.4648 10.4435 21.3538C10.6253 21.563 10.8071 21.7983 11.0149 21.9813C10.1579 23.9161 9.43076 25.9294 8.85944 27.9688C8.7296 27.6812 8.57378 27.3936 8.36602 27.1321C7.7168 26.2954 7.17144 25.1712 6.3664 24.4652C5.37958 23.6024 3.48384 23.7592 3.56174 25.4065C3.66562 27.2106 4.54856 29.1192 6.23656 29.9559C6.62609 30.139 7.50904 30.5573 8.18424 30.5834C7.87261 32.0215 7.6389 33.4857 7.48308 34.9499C7.32727 36.5709 7.30129 38.2705 7.40516 39.97C7.35322 39.9438 7.32725 39.8915 7.27532 39.8654C6.44431 39.1594 5.71717 38.2443 4.80825 37.6691C3.82143 37.0416 1.66601 36.7017 1.12066 38.1136C0.627245 39.3947 1.69197 40.5975 2.73073 41.1204C3.66561 41.591 4.70438 41.8263 5.76911 41.8786C6.31446 41.9048 6.98966 41.9571 7.58695 41.8786C7.97648 45.0423 8.83347 48.206 10.2098 51.056C10.1839 51.056 10.1319 51.0821 10.106 51.0821C9.71642 50.9253 9.27495 50.7161 9.04123 50.5854C8.46991 50.3239 7.95053 49.984 7.35323 49.7487C6.2885 49.3303 5.1978 49.0427 4.05516 48.912C2.99043 48.7813 0.107851 48.5982 0.00397272 50.2455C-0.0999016 52.0234 2.96445 52.6771 4.21097 52.6248C5.58733 52.5725 6.93772 52.4156 8.31408 52.1803C8.85943 52.1019 9.43076 52.0234 9.97611 51.9188C10.2358 51.9973 10.4955 52.0496 10.7292 52.0496C12.1315 54.5596 13.9753 56.782 16.3645 58.4031C17.2734 59.0306 18.3381 59.6058 19.4548 60.1026C18.3122 60.5994 17.2734 61.1485 16.3645 61.8021C14.0013 63.4494 12.1315 65.6456 10.7292 68.1557C10.4695 68.1557 10.2098 68.208 9.97611 68.2864C9.43075 68.1818 8.85943 68.1034 8.31408 68.025C6.96368 67.7896 5.58733 67.6328 4.21097 67.5805C2.96445 67.5282 -0.125873 68.1818 0.00397186 69.9598C0.10785 71.5809 2.99043 71.3978 4.05516 71.2932C5.17183 71.1625 6.2885 70.8749 7.35323 70.4566C7.95052 70.2213 8.46991 69.9075 9.04123 69.6199C9.30092 69.4891 9.71642 69.28 10.106 69.1231C10.1319 69.1231 10.1839 69.1493 10.2098 69.1493C8.8075 71.9731 7.95052 75.1368 7.58695 78.3266C6.96369 78.2482 6.31446 78.3005 5.76911 78.3266C4.73035 78.3789 3.69158 78.6142 2.73072 79.0849C1.69196 79.6078 0.627243 80.8105 1.12066 82.0917C1.66601 83.4774 3.82143 83.1637 4.80825 82.5362C5.71717 81.9609 6.44431 81.0197 7.27531 80.3399C7.32725 80.3137 7.35322 80.2614 7.40516 80.2353C7.30129 81.9348 7.32727 83.6343 7.48308 85.2554C7.63889 86.7196 7.8726 88.1838 8.18423 89.6218C7.50904 89.648 6.62609 90.0663 6.23655 90.2493C4.54856 91.0599 3.66561 92.9686 3.56174 94.7988C3.45786 96.4199 5.37957 96.5767 6.3664 95.7401C7.17144 95.0341 7.69082 93.9098 8.36602 93.0731C8.57377 92.8117 8.72959 92.5241 8.85944 92.2364C9.43076 94.2759 10.1579 96.263 11.0149 98.224C10.8071 98.407 10.6253 98.6423 10.4435 98.8515C9.69044 99.7404 8.91137 100.551 8.28811 101.545C7.63889 102.564 7.19742 104.421 8.13231 105.44C9.11913 106.538 10.3916 105.493 10.937 104.499C11.5862 103.27 11.8459 101.78 11.9757 100.316C12.0536 100.499 12.1575 100.682 12.2354 100.865C13.1443 102.669 14.1312 104.421 15.1699 106.146C13.7416 106.852 12.7029 107.872 12.1575 109.467C11.768 110.565 11.6381 112.395 12.8327 113.049C14.2091 113.833 15.0141 112.421 15.3777 111.297C15.6633 110.408 15.8971 109.545 16.0269 108.604C16.0788 108.186 16.0269 107.767 15.975 107.375C16.1308 107.61 16.2866 107.872 16.4684 108.107C17.8447 110.147 19.5068 111.794 21.0909 113.624C20.2858 114.278 19.7405 115.402 19.3769 116.317C18.9874 117.258 18.7017 119.219 19.7664 119.873C20.6754 120.187 21.6362 119.402 22.1816 118.723ZM25.3498 2.47615C26.051 1.79634 27.2456 0.802793 28.2583 0.802793C30.0502 0.776647 28.2064 2.81605 27.6351 3.31283C26.1029 4.67244 24.5448 5.6137 22.5192 5.82287C22.7789 5.40453 23.5579 4.80318 23.7138 4.59401C24.2851 3.88806 24.7006 3.10366 25.3498 2.47615ZM20.3118 3.96649C20.0521 3.46971 19.7924 2.68533 19.8963 2.11011C20.1041 1.03811 20.987 1.03811 21.5323 1.71791C22.0258 2.37157 22.0258 3.31283 21.9998 4.12336C21.9738 4.67243 21.8699 5.22152 21.6882 5.7183C21.6622 5.77059 21.6362 5.84903 21.6103 5.90132C21.6103 5.90132 21.6103 5.92746 21.5843 5.92746C21.013 5.43068 20.5975 4.54171 20.3118 3.96649ZM27.4014 6.16279C27.9986 6.24123 27.739 6.34581 27.1936 6.71185C26.4924 7.15634 25.8172 7.07791 25.0641 6.94718C24.8044 6.89488 24.0773 6.7903 23.48 6.63342C24.7525 6.31966 26.051 5.97976 27.4014 6.16279ZM13.1963 11.0783C12.8847 10.4769 12.6769 9.79712 12.7029 9.11732C12.7029 8.93429 12.7288 8.28063 12.9106 8.1499C13.3781 8.1499 13.8455 8.17604 14.3129 8.17604C14.3909 8.35906 14.4688 8.56824 14.5467 8.75126C14.8843 9.74482 15.1699 10.8168 15.2219 11.8627C15.2478 12.281 15.1959 12.6994 15.1959 13.1438C14.3649 12.6471 13.6637 12.0196 13.1963 11.0783ZM17.0916 13.6145C17.8447 13.3792 18.6498 13.2223 19.4289 13.17C19.8444 13.1438 20.2599 13.1438 20.6494 13.1438C21.2727 13.17 21.6882 13.0131 21.4025 13.6929C21.1688 14.3204 20.7792 14.1636 20.156 14.1374C19.6885 14.1374 19.2211 14.0851 18.7796 14.0328C18.3901 13.9805 17.5851 13.9021 17.0916 13.6145ZM10.1839 19.785C9.30091 18.896 8.10634 17.3011 8.46991 15.9415C8.83347 14.608 10.054 15.5493 10.3916 16.2814C10.6253 16.7782 10.7292 17.3795 10.8591 17.9025C11.1188 18.9745 11.2226 20.0465 11.3005 21.1446C10.885 20.7263 10.3916 20.0203 10.1839 19.785ZM12.6509 21.8244C13.3521 21.6414 14.3129 21.6675 14.9102 21.6414C15.7672 21.5891 17.3254 21.2231 18.1823 21.5368C19.2471 21.929 18.1304 22.4519 17.637 22.635C16.8319 22.9226 15.975 22.9487 15.118 22.7918C14.5207 22.7395 13.3261 22.3735 12.6509 21.8244ZM6.26253 28.9624C5.24974 28.3087 4.67842 27.2367 4.57454 26.0601C4.41873 25.7725 4.44469 25.4849 4.65245 25.1711C4.65245 24.5698 4.86019 24.4652 5.32764 24.8051C5.87299 24.9881 5.9509 25.0143 6.26253 25.4326C6.6261 25.9294 6.91176 26.5046 7.3013 27.0014C7.66486 27.4459 8.02843 27.8642 8.26215 28.361C8.392 28.5963 8.44394 28.8578 8.52185 29.1192C8.52185 29.1454 8.52184 29.1715 8.49587 29.1977C8.36602 29.3023 8.34005 29.433 8.36602 29.5637C8.34005 29.5899 8.31409 29.6422 8.28812 29.6945C8.23618 29.9036 6.39238 29.0408 6.26253 28.9624ZM9.50867 29.5899C9.50867 29.5637 9.50867 29.5637 9.50867 29.5899C9.95014 29.4069 10.4176 29.2761 10.8331 29.067C11.4563 28.8055 12.0796 28.4917 12.7029 28.2303C13.3261 27.9688 13.9754 27.7335 14.6246 27.655C15.0661 27.6028 16.2866 27.4459 16.5723 27.8381C17.0657 28.544 14.261 29.433 13.7676 29.5637C13.2482 29.7206 10.1579 30.2958 9.50867 29.5899ZM10.054 39.8131C10.6253 39.3947 11.1967 38.9503 11.768 38.5319C12.599 37.9044 14.4947 36.2833 15.6374 36.4402C17.3254 36.6494 15.4556 38.375 14.9622 38.7149C14.287 39.1594 13.5339 39.4732 12.8067 39.7346C12.0277 40.0223 10.0021 40.9635 8.8854 40.8067C8.8854 40.7805 8.8854 40.7805 8.8854 40.7544C8.91137 40.4929 9.87223 39.9438 10.054 39.8131ZM6.18463 40.9897C5.48346 40.9897 4.7823 40.9112 4.1071 40.7021C3.19818 40.4406 1.32841 39.6039 1.92569 38.2966C2.26329 37.5906 3.53578 37.7737 4.13307 38.0613C4.73035 38.3489 5.17184 38.898 5.66525 39.3686C6.18463 39.8654 6.93772 40.336 7.50905 40.9112C7.50905 40.9374 7.50905 40.9635 7.50905 40.9897C7.06757 41.042 6.5482 40.9897 6.18463 40.9897ZM11.6122 50.6377C11.8718 50.0101 12.4951 49.1212 12.7288 48.729C13.2742 47.8139 14.0532 47.0295 14.6765 46.1928C15.3257 45.3561 16.5203 43.8919 17.7149 43.8396C18.1304 43.5782 18.2862 43.7089 18.1564 44.2057C18.2602 44.4933 18.2083 44.7547 18.0006 44.9901C17.8447 45.33 17.611 45.696 17.4033 45.9836C16.8839 46.7942 16.2347 47.3955 15.5075 48.023C14.4947 48.912 13.0924 50.3239 11.6901 50.9253C11.716 50.8207 11.6901 50.7161 11.6122 50.6377ZM2.0815 51.2913C1.53615 51.0037 0.549329 50.6115 1.40631 49.7487C1.64003 49.5134 2.31522 49.5395 2.60088 49.5395C4.41872 49.4349 6.39238 49.984 8.00246 50.8207C8.26215 50.9514 8.52184 51.1083 8.8075 51.2652C8.4699 51.3175 8.1323 51.3436 7.82068 51.3959C6.93773 51.5266 6.02881 51.6312 5.14586 51.7097C4.05516 51.7358 3.06833 51.7881 2.0815 51.2913ZM29.9723 59.1875C31.1149 59.3182 32.2056 59.5797 33.2444 59.998C32.2056 60.4164 31.089 60.6779 29.9723 60.8086C27.1936 61.0962 24.4149 60.8347 21.818 59.998C24.3889 59.1614 27.1676 58.8738 29.9723 59.1875ZM8.00246 69.1754C6.39238 70.0121 4.41872 70.535 2.60088 70.4566C2.31522 70.4304 1.64003 70.4827 1.40631 70.2474C0.549329 69.3584 1.53615 68.9662 2.0815 68.7048C3.09429 68.1818 4.08113 68.2603 5.14586 68.3387C6.05478 68.391 6.93773 68.4956 7.82068 68.6525C8.1323 68.7048 8.4699 68.7309 8.8075 68.7832C8.52184 68.8878 8.26215 69.0447 8.00246 69.1754ZM11.716 69.0447C13.0924 69.646 14.4947 71.0841 15.5335 71.9469C16.2606 72.5744 16.9099 73.1758 17.4292 73.9863C17.611 74.3001 17.8707 74.6661 18.0265 74.9799C18.2343 75.2152 18.2862 75.4767 18.1823 75.7643C18.3122 76.261 18.1564 76.3656 17.7409 76.1303C16.5463 76.0519 15.3517 74.6138 14.7025 73.7772C14.0533 72.9405 13.3002 72.1561 12.7548 71.241C12.5211 70.8488 11.8978 69.9598 11.6381 69.3323C11.6901 69.2538 11.716 69.1493 11.716 69.0447ZM12.8067 80.2353C13.5598 80.4968 14.3129 80.8105 14.9622 81.255C15.4556 81.5687 17.2994 83.3206 15.6374 83.5297C14.5207 83.6866 12.599 82.0655 11.768 81.438C11.1967 80.9935 10.6253 80.5752 10.054 80.1569C9.87223 80.0261 8.91137 79.477 8.8854 79.2156C8.8854 79.1894 8.8854 79.1894 8.8854 79.1633C10.0021 79.0064 12.0277 79.9477 12.8067 80.2353ZM5.69121 80.5752C5.22376 81.0458 4.78228 81.5688 4.15903 81.8825C3.56174 82.1701 2.28925 82.3793 1.95165 81.6472C1.3284 80.366 3.19818 79.5293 4.13306 79.2417C4.80826 79.0326 5.50942 78.9541 6.21059 78.9541C6.57416 78.9541 7.09353 78.9018 7.535 78.928C7.535 78.9541 7.535 78.9803 7.535 79.0064C6.96368 79.6078 6.18462 80.0784 5.69121 80.5752ZM13.7676 90.3801C14.261 90.5108 17.0657 91.4259 16.5723 92.1057C16.2866 92.4979 15.0661 92.341 14.6246 92.2887C13.9494 92.1841 13.3001 91.975 12.7029 91.7135C12.0796 91.4521 11.4563 91.1645 10.8331 90.8768C10.4176 90.6938 9.92417 90.5631 9.50866 90.3801C9.50866 90.3801 9.50866 90.3801 9.50866 90.3539C10.1579 89.648 13.2482 90.2232 13.7676 90.3801ZM7.30129 92.9424C6.91176 93.4392 6.6261 93.9882 6.26253 94.5112C5.9509 94.9295 5.87299 94.9818 5.32763 95.1387C4.86019 95.4786 4.62648 95.374 4.65244 94.7726C4.44469 94.485 4.41872 94.1974 4.57454 93.8837C4.67842 92.6809 5.24974 91.6351 6.26253 90.9814C6.39238 90.903 8.23617 90.0402 8.31408 90.2493C8.34005 90.3016 8.36603 90.3539 8.392 90.3801C8.36603 90.5108 8.392 90.6415 8.52184 90.7461C8.52184 90.7723 8.52184 90.7984 8.54781 90.8246C8.4699 91.086 8.39199 91.3213 8.28811 91.5828C8.02843 92.1057 7.66486 92.4979 7.30129 92.9424ZM14.9102 98.3024C14.3129 98.2762 13.3781 98.3024 12.6509 98.1194C13.3261 97.5964 14.5207 97.2304 15.092 97.1258C15.949 96.9951 16.806 97.0212 17.611 97.2827C18.1044 97.4396 19.2471 97.9886 18.1564 98.3808C17.2994 98.7207 15.7672 98.3547 14.9102 98.3024ZM10.8591 102.067C10.7292 102.59 10.5994 103.192 10.3916 103.689C10.054 104.421 8.85944 105.362 8.4699 104.028C8.08037 102.669 9.3009 101.074 10.1839 100.185C10.3916 99.9758 10.911 99.2437 11.3005 98.8515C11.2226 99.9235 11.1188 100.995 10.8591 102.067ZM19.4289 106.774C18.6238 106.721 17.8447 106.565 17.0916 106.329C17.5851 106.068 18.3901 105.963 18.7796 105.911C19.2471 105.859 19.7145 105.806 20.156 105.806C20.7792 105.78 21.1688 105.623 21.4025 106.251C21.6622 106.931 21.2467 106.774 20.6494 106.8C20.2599 106.8 19.8444 106.8 19.4289 106.774ZM15.2219 108.107C15.1699 109.179 14.8843 110.225 14.5467 111.219C14.4687 111.402 14.3909 111.611 14.3129 111.794C13.8455 111.794 13.3781 111.82 12.9106 111.82C12.7548 111.689 12.7288 111.036 12.7029 110.853C12.6769 110.173 12.8846 109.493 13.1963 108.892C13.6637 107.95 14.3649 107.323 15.1959 106.826C15.1959 107.244 15.2478 107.689 15.2219 108.107ZM23.4541 113.31C24.0773 113.153 24.7785 113.049 25.0382 112.997C25.7913 112.866 26.4665 112.787 27.1676 113.232C27.713 113.598 27.9727 113.703 27.3754 113.781C26.051 113.964 24.7525 113.624 23.4541 113.31ZM27.6351 116.631C28.2064 117.128 30.0502 119.167 28.2583 119.141C27.2455 119.141 26.051 118.147 25.3498 117.468C24.7006 116.814 24.2851 116.056 23.7138 115.35C23.5579 115.167 22.7789 114.539 22.5192 114.121C24.5448 114.356 26.1029 115.271 27.6351 116.631ZM19.9223 117.86C19.8184 117.258 20.0781 116.5 20.3378 116.003C20.6234 115.428 21.0389 114.539 21.6102 114.042C21.6102 114.042 21.6103 114.069 21.6362 114.069C21.6622 114.121 21.6882 114.199 21.7141 114.252C21.8959 114.748 21.9998 115.324 22.0258 115.847C22.0517 116.657 22.0517 117.598 21.5583 118.252C21.013 118.932 20.104 118.906 19.9223 117.86Z" fill="#daa520"/>
</svg>
