<svg width="30" height="30" viewBox="0 0 30 30" fill="none" xmlns="http://www.w3.org/2000/svg">
<path d="M18.9375 10.5C17.9794 10.4968 17.0301 10.6824 16.1439 11.0464C15.2577 11.4104 14.4519 11.9455 13.7727 12.6212C13.0935 13.2969 12.5542 14.0999 12.1857 14.9843C11.8172 15.8686 11.6266 16.817 11.625 17.775V25.125C11.625 25.4234 11.7435 25.7096 11.9545 25.9205C12.1655 26.1315 12.4516 26.25 12.75 26.25H15.375C15.6734 26.25 15.9595 26.1315 16.1705 25.9205C16.3815 25.7096 16.5 25.4234 16.5 25.125V17.775C16.4998 17.4343 16.5713 17.0973 16.71 16.7861C16.8488 16.4748 17.0515 16.1963 17.3051 15.9687C17.5586 15.7411 17.8573 15.5695 18.1817 15.465C18.506 15.3606 18.8488 15.3257 19.1875 15.3625C19.795 15.4391 20.3533 15.7359 20.7565 16.1967C21.1597 16.6575 21.3798 17.2503 21.375 17.8625V25.125C21.375 25.4234 21.4935 25.7096 21.7045 25.9205C21.9155 26.1315 22.2016 26.25 22.5 26.25H25.125C25.4234 26.25 25.7095 26.1315 25.9205 25.9205C26.1315 25.7096 26.25 25.4234 26.25 25.125V17.775C26.2484 16.817 26.0578 15.8686 25.6893 14.9843C25.3208 14.0999 24.7815 13.2969 24.1023 12.6212C23.4231 11.9455 22.6173 11.4104 21.7311 11.0464C20.8449 10.6824 19.8956 10.4968 18.9375 10.5Z" fill="#F9FAFB"/>
<path d="M8.25 11.625H4.875C4.25368 11.625 3.75 12.1287 3.75 12.75V25.125C3.75 25.7463 4.25368 26.25 4.875 26.25H8.25C8.87132 26.25 9.375 25.7463 9.375 25.125V12.75C9.375 12.1287 8.87132 11.625 8.25 11.625Z" fill="#F9FAFB"/>
<path d="M6.5625 9.375C8.1158 9.375 9.375 8.1158 9.375 6.5625C9.375 5.0092 8.1158 3.75 6.5625 3.75C5.0092 3.75 3.75 5.0092 3.75 6.5625C3.75 8.1158 5.0092 9.375 6.5625 9.375Z" fill="#F9FAFB"/>
</svg>
