<svg width="403" height="424" viewBox="0 0 403 424" fill="none" xmlns="http://www.w3.org/2000/svg">
<g opacity="0.3">
<path d="M-65.2582 21.2936L-66.9953 21.9025L-64.2359 18.8861C-41.9746 57.416 -18.8629 95.3059 13.4464 126.374C43.1795 154.852 75.4168 182.372 110.178 204.591C176.629 247 254.379 272.434 332.581 280.482C336.637 280.9 330.973 284.982 328.65 284.744C250.976 276.662 174.159 251.767 107.679 210.388C70.8012 187.428 36.6117 158.441 5.49236 128.201C-26.2769 97.2751 -49.0738 59.6237 -71.0848 21.4928C-71.8414 20.2076 -69.0311 18.7194 -68.3131 18.4552L-66.5548 17.8586C-62.4417 16.4156 -61.066 19.8116 -65.3195 21.3997L-65.2582 21.2936Z" fill="#F3D2A7"/>
<path d="M310.486 280.647C314.99 292.438 328.583 298.278 339.969 300.695C349.631 302.766 367.985 304.427 377.261 299.772L375.36 302.378C370.034 292.404 357.192 282.812 348.314 276.103C343.715 272.656 338.879 268.789 333.193 267.373C329.24 266.335 300.018 269.344 307.494 279.316C309.251 281.659 302.623 284.619 301.222 282.736C291.228 269.387 321.678 261.997 330.953 262.29C340.775 262.616 348.287 267.971 355.824 273.821C364.72 280.598 376.852 289.949 382.168 299.89C382.711 300.91 380.871 302.139 380.289 302.51C369.272 308.026 351.344 307.488 339.42 305.808C325.833 303.873 308.73 297.109 303.552 283.402C302.642 281.01 309.515 278.362 310.413 280.775L310.486 280.647Z" fill="#F3D2A7"/>
<path d="M239.564 264.643C235.462 271.748 242.331 282.868 245.645 289.08C248.624 294.645 254.587 307.873 261.202 310.08C264.247 311.075 258.144 314.79 256.045 314.116C248.201 311.539 242.393 298.288 238.88 291.735C235.121 284.729 228.406 273.245 233.101 265.209C234.24 263.237 241.296 261.938 239.67 264.704L239.564 264.643Z" fill="#F3D2A7"/>
<path d="M242.614 286.934C232.847 287.885 237.255 306.011 239.043 310.946C241.808 318.523 246.232 325.386 251.989 331.033C259.396 338.138 276.67 346.272 287.592 345.084L282.996 348.539C278.541 338.331 273.7 327.223 268.383 317.479C264.024 309.307 253.005 282.895 239.853 286.868C235.728 288.134 234.286 284.756 238.618 283.326C250.377 279.709 260.665 288.336 266.505 298.155C275.276 313.531 283.093 329.434 289.91 345.772C290.788 347.778 286.496 349.089 285.313 349.227C277.44 350.082 266.422 346.097 259.349 343.116C249.197 338.632 240.869 330.833 235.729 320.995C228.547 307.969 224.826 284.441 245.034 282.45C249.789 282 245.362 286.485 242.584 286.691L242.614 286.934Z" fill="#F3D2A7"/>
<path d="M186.445 249.046C185.811 245.541 187.885 243.515 190.277 241.135C197.088 234.236 206.7 229.096 214.608 223.481C225.753 215.841 238.723 211.289 252.198 210.288C256.965 210.014 252.617 214.46 249.749 214.53C238.224 215.563 227.16 219.547 217.621 226.098C212.655 229.509 192.091 240.344 193.179 246.345C193.644 249.017 186.77 251.129 186.297 248.961L186.445 249.046Z" fill="#F3D2A7"/>
<path d="M221.756 219.379C220.572 220.647 235.075 224.863 236.447 225.033C242.91 225.672 249.431 224.695 255.422 222.188C259.621 220.597 281.969 211.47 278.105 205.478C277.152 203.995 259.093 200.893 258.996 200.865C250.008 199.635 221.127 204.453 223.864 218.617C224.353 221.247 217.476 223.412 216.994 221.211C214.454 207.783 233.852 201.025 243.51 198.4C251.307 196.096 259.56 195.802 267.501 197.546C273.518 198.927 283.493 199.624 288.64 203.246C289.446 203.712 288.77 204.735 288.388 205.25C276.214 221.439 230.685 243.142 214.972 220.892C214.65 220.423 215.261 219.56 215.508 219.279L215.966 218.78C217.538 217.085 224.515 216.363 221.792 219.316L221.756 219.379Z" fill="#F3D2A7"/>
<path d="M139.705 227.01C129.051 234.687 135.298 260.012 137.67 270.205C138.764 275.586 140.35 280.856 142.407 285.948C143.847 289.183 146.187 291.694 146.487 295.289C146.656 297.592 139.717 299.864 139.499 296.91C139.282 293.957 136.682 291.211 135.524 288.564C134.15 285.174 133.025 281.689 132.157 278.136C130.003 270.178 128.568 262.043 127.868 253.828C126.928 243.359 125.815 232.112 135.058 225.458C137.237 223.888 143.519 224.32 139.728 227.164L139.705 227.01Z" fill="#F3D2A7"/>
<path d="M131.176 257.746C108.798 264.084 119.872 292.507 129.549 304.004C136.767 312.611 148.313 323.321 158.524 328.311L152.388 331.103C153.946 326.347 152.329 320.578 151.786 315.542C151.207 307.493 150.082 299.493 148.419 291.597C146.996 285.883 138.815 256.415 129.556 259.327C125.419 260.615 123.989 257.216 128.299 255.774C141.065 251.833 146.533 263.813 150.761 274.171C154.612 284.091 157.073 294.496 158.075 305.09C158.863 312.247 161.783 322.275 159.424 329.397C158.878 330.497 157.97 331.375 156.852 331.884C155.735 332.392 154.476 332.5 153.288 332.188C145.62 328.525 138.97 321.971 132.564 316.463C123.551 308.714 115.871 299.388 112.789 287.682C108.489 271.427 115.655 258.23 131.817 253.648C136.583 252.299 134.54 256.718 131.237 257.639L131.176 257.746Z" fill="#F3D2A7"/>
<path d="M83.7 190.406C92.0972 183.802 101.798 179.052 112.163 176.467C123.674 173.329 136.149 174.592 147.465 171.398C152.219 170.07 150.21 174.481 146.886 175.39C140.195 177.183 132.765 176.683 125.918 177.424C112.33 179.166 99.0687 183.132 88.2647 191.854C86.1919 193.485 79.933 193.208 83.5947 190.147L83.7 190.406Z" fill="#F3D2A7"/>
<path d="M125.705 175.492C127.61 188.893 147.399 184.737 156.231 181.635C165.428 178.241 174.171 173.724 182.262 168.187L182.564 171.189C172.629 171.109 163.658 165.93 153.896 164.62C147.794 163.925 118.736 166.209 124.688 178.185C125.753 180.355 118.979 183.175 117.805 180.8C112.375 169.832 129.772 163.305 137.87 161.278C144.931 159.617 152.256 159.411 159.399 160.671C168.575 162.066 177.22 166.831 186.459 166.99C188.597 167.009 188.065 169.105 186.761 169.993C174.332 178.2 160.677 185.786 145.727 188.466C135.954 190.26 120.502 190.87 118.749 178.235C118.351 175.545 125.243 173.5 125.619 175.64L125.705 175.492Z" fill="#F3D2A7"/>
<path d="M49.6293 164.74C45.7422 165.889 46.4644 187.656 46.3857 190.976C46.1009 202.293 49.7837 210.754 52.6524 221.262C53.3547 223.816 46.4764 226.179 45.77 223.877C43.6574 216.125 40.3321 209.2 39.5854 200.992C39.1904 194.53 39.3121 188.047 39.9491 181.604C40.5366 172.555 40.4916 163.621 50.188 160.735C54.957 159.332 52.9019 163.773 49.6293 164.74Z" fill="#F3D2A7"/>
<path d="M48.0852 194.645C43.1412 190.376 36.6239 200.244 35.328 203.37C34.4824 205.891 34.1002 208.545 34.1995 211.202C34.4432 218.127 36.3594 224.89 39.7847 230.913C44.3991 239.573 55.6453 253.446 65.8111 256.261L59.8841 258.495C62.2596 254.381 60.7248 245.774 60.6637 241.13C60.2609 235.021 59.5349 228.938 58.4888 222.907C58.0968 219.57 58.382 216.284 58.1874 212.948C57.7203 205.382 53.8815 199.885 49.5712 193.834L56.1485 190.816L56.4414 191.24C57.7396 193.007 51.1923 196.07 49.5924 193.846L49.2783 193.41C48.0226 191.667 54.5277 188.579 55.856 190.393C58.9954 194.75 62.8712 199.448 64.5148 204.78C66.274 210.745 65.1438 217.502 66.0488 223.623C67.0667 229.415 67.6538 235.274 67.8048 241.152C67.8316 246.003 69.0851 253.627 66.6238 257.89C65.9648 258.804 65.0511 259.503 63.9969 259.9C62.9427 260.298 61.7949 260.375 60.6968 260.124C52.4088 257.827 42.1748 247.196 37.3908 240.447C30.3603 230.732 25.5522 218.539 28.1461 206.406C30.163 196.938 44.4404 182.444 54.4947 191.134C56.519 192.868 50.1102 196.181 48.2222 194.554L48.0852 194.645Z" fill="#F3D2A7"/>
<path d="M8.91208 125.707C18.4015 115.491 32.5243 111.06 45.491 107.065C52.5394 104.689 59.8917 103.334 67.3241 103.042C73.5391 102.954 81.0975 105.339 87.136 103.989C91.9645 102.875 89.9494 107.197 86.5772 107.994C77.2303 110.176 66.9311 106.662 57.3445 108.083C43.7488 110.132 24.2981 115.954 14.6929 126.273C13.121 127.967 6.12246 128.677 8.88756 125.749L8.91208 125.707Z" fill="#F3D2A7"/>
<path d="M42.1729 109.872C54.2381 114.49 65.9704 121.547 79.2797 119.701C89.9782 118.214 99.9052 114.048 109.756 109.866L106.938 112.396C107.209 107.519 100.274 100.234 96.9514 97.4675C90.2726 91.943 81.8512 90.9553 73.6075 92.3041C64.8989 93.7238 55.8095 96.7334 49.3997 102.987C45.8054 106.568 44.6443 109.46 40.7304 112.517C38.6152 114.124 32.3596 113.793 36.0605 110.811C39.2611 108.304 41.0696 103.947 44.1227 101.156C47.4504 98.2746 51.1616 95.868 55.1503 94.0058C62.6356 90.4463 70.6851 88.2221 78.9357 87.4338C86.047 86.5802 93.2437 88.0473 99.4533 91.6161C104.946 94.7873 114.209 103.868 113.85 110.759C113.753 112.004 111.945 112.883 111.01 113.277C100.271 117.822 89.2096 122.974 77.4627 124.562C63.0716 126.519 49.7143 118.75 36.8456 113.809C33.8103 112.651 39.932 109.002 42.1092 109.835L42.1729 109.872Z" fill="#F3D2A7"/>
</g>
</svg>
