<svg width="120" height="40" viewBox="0 0 120 40" fill="none" xmlns="http://www.w3.org/2000/svg">
<path d="M118.723 17.8184C118.043 17.2731 117.52 17.2991 116.683 17.2731C116.291 17.2471 115.925 17.2211 115.533 17.2471C115.637 17.1432 115.716 17.0653 115.82 16.9874C116.657 16.2862 117.572 15.7669 118.304 14.9359C119.219 13.949 120.762 11.7676 119.559 10.4432C118.409 9.17072 116.709 11.1184 116.003 11.9234C115.428 12.5727 114.958 13.2219 114.539 13.8971C114.539 13.8452 114.539 13.7932 114.539 13.7673C114.539 13.1959 114.879 11.5599 113.99 11.3781C112.944 11.1703 112.186 13.0142 112.108 13.7673C112.003 14.9618 112.369 16.52 113.023 17.6886C112.944 17.7665 112.918 17.8963 112.944 18.0262C112.97 18.1041 112.997 18.182 113.023 18.2599C111.742 19.4025 110.565 20.675 109.179 21.7138C108.499 22.2332 107.794 22.7266 107.061 23.194C107.558 21.2723 108.343 16.5459 106.042 17.351C104.734 17.8184 104.996 19.5064 105.074 20.5711C105.153 21.4022 105.231 22.9084 105.911 23.6615C105.885 23.6874 105.859 23.6874 105.859 23.7134C105.833 23.7394 105.833 23.7654 105.806 23.7654C105.754 23.8433 105.702 23.8952 105.702 23.9731C105.676 23.9991 105.649 24.025 105.597 24.051C105.545 24.077 105.519 24.1289 105.493 24.1809C104.944 24.5184 104.368 24.856 103.819 25.1677C102.198 26.1026 100.525 26.9855 98.8253 27.7646C98.9299 27.375 98.9561 26.9336 99.0083 26.57C99.1652 25.3754 99.1914 24.1549 99.2437 22.9603C99.2698 22.1553 99.3483 19.9479 97.9364 20.3374C96.5506 20.701 96.263 23.2719 96.3414 24.3626C96.4199 25.4014 96.8643 27.1154 97.7272 28.0243C97.6749 28.1022 97.6487 28.2061 97.6487 28.284C96.0015 29.0111 94.302 29.6344 92.5764 30.1537C92.158 30.2836 91.7135 30.4134 91.269 30.5173C91.5305 29.8681 91.7658 29.1669 92.0273 28.5437C92.4979 27.5309 92.9686 26.4921 93.0993 25.3754C93.2039 24.5704 93.0993 21.8696 91.6351 22.4669C90.3278 22.9863 89.6218 25.7909 89.4388 26.9595C89.2819 27.9204 88.9943 29.972 89.7525 30.9068C86.4581 31.634 83.0591 31.9196 79.7124 31.7119C80 31.5041 80.2091 31.1665 80.4445 30.8549C81.2811 29.7642 82.1701 28.6735 82.9022 27.5309C83.4774 26.622 85.3338 23.8173 83.765 22.9603C82.1178 22.0514 80.4706 24.7002 79.9477 25.8169C79.3463 27.1154 78.9018 28.5177 78.5881 29.894C78.4835 30.2836 78.405 30.7251 78.4312 31.1406C78.405 31.1146 78.3528 31.1146 78.3266 31.0886C78.1436 31.0107 77.8821 31.1406 77.8298 31.3483C77.8298 31.3743 77.8037 31.4262 77.8037 31.4522C77.8037 31.4782 77.8037 31.4782 77.8037 31.5041C74.9799 31.1406 72.2084 30.3615 69.6199 29.1669C70.352 28.9072 70.9533 28.3878 71.6331 27.9723C72.7574 27.3231 73.7772 26.3623 74.7969 25.5572C75.712 24.8301 77.5684 22.7266 76.9931 21.3502C76.3133 19.7661 73.6726 21.7917 72.9405 22.363C71.8685 23.194 71.0056 24.3886 70.169 25.4533C69.4892 26.3103 68.5479 27.3231 68.1818 28.4138C64.5213 26.3623 61.9067 23.1421 60.4425 19.4025C62.0375 15.0397 62.4035 9.71607 60.4948 5.69087C61.6976 3.40559 63.6585 1.61372 66.43 1.0424C70.0905 0.263329 74.0648 1.12031 76.4441 4.10676C78.9018 7.19708 80.0523 11.6638 77.5161 15.0657C76.1826 16.8316 74.2478 17.7405 72.0515 17.0653C69.9598 16.4161 68.2603 14.858 67.8942 12.6766C67.8158 12.1831 67.0575 12.3649 67.136 12.8583C67.6851 16.1304 71.3455 18.7273 74.6923 18.0002C78.1174 17.2471 79.8431 13.3517 79.7385 10.1575C79.6078 6.91142 77.5684 3.37962 74.8491 1.58775C71.6854 -0.515742 66.6392 -0.489774 63.3971 1.43194C61.9329 2.31489 60.8347 3.4835 59.998 4.83389C59.1875 3.4835 58.0894 2.31489 56.599 1.43194C53.383 -0.489774 48.3106 -0.515742 45.1469 1.58775C42.4277 3.40559 40.3883 6.91142 40.2576 10.1575C40.1268 13.3517 41.8525 17.2471 45.3038 18.0002C48.6505 18.7273 52.311 16.1564 52.8601 12.8583C52.9385 12.3649 52.1803 12.1831 52.1018 12.6766C51.7358 14.8839 50.0363 16.4421 47.9446 17.0653C45.7483 17.7405 43.8135 16.8576 42.48 15.0657C39.9438 11.6638 41.1204 7.19708 43.552 4.10676C45.9313 1.12031 49.9056 0.263329 53.5661 1.0424C56.3114 1.61372 58.2985 3.40559 59.5013 5.69087C57.5926 9.71607 57.9586 15.0397 59.5535 19.4025C58.0894 23.1161 55.4747 26.3363 51.8142 28.4138C51.4482 27.3231 50.5069 26.3103 49.8271 25.4533C48.9904 24.3886 48.1276 23.22 47.0556 22.363C46.3235 21.7917 43.6827 19.7661 43.0029 21.3502C42.4277 22.7006 44.2841 24.8041 45.1992 25.5572C46.2189 26.3623 47.2386 27.3231 48.3629 27.9723C49.0427 28.3619 49.6441 28.9072 50.3762 29.1669C47.7877 30.3875 45.0162 31.1406 42.1924 31.5041C42.1924 31.4782 42.1924 31.4782 42.1924 31.4522C42.1924 31.4262 42.1662 31.3743 42.1662 31.3483C42.114 31.1406 41.8525 31.0367 41.6695 31.0886C41.6433 31.1146 41.591 31.1146 41.5649 31.1406C41.591 30.7251 41.5126 30.2836 41.408 29.894C41.0943 28.5177 40.6236 27.1154 40.0484 25.8169C39.5255 24.7002 37.8783 22.0514 36.231 22.9603C34.6623 23.8173 36.5187 26.622 37.0939 27.5309C37.826 28.6735 38.7411 29.7642 39.5516 30.8549C39.7869 31.1665 39.9961 31.5041 40.2837 31.7119C36.937 31.9456 33.5118 31.634 30.2435 30.9068C31.0018 29.972 30.7142 27.9204 30.5573 26.9595C30.3743 25.7909 29.6683 23.0122 28.361 22.4669C26.8707 21.8696 26.7661 24.5704 26.8968 25.3754C27.0537 26.4921 27.5243 27.5309 27.9688 28.5437C28.2564 29.1669 28.4656 29.8681 28.7271 30.5173C28.2826 30.4134 27.8642 30.2836 27.4197 30.1537C25.6941 29.6344 23.9946 29.0111 22.3473 28.284C22.3473 28.1801 22.3212 28.1022 22.2689 28.0243C23.1579 27.1154 23.6024 25.4014 23.6547 24.3626C23.7331 23.2719 23.4455 20.727 22.0597 20.3374C20.6478 19.9479 20.7001 22.1553 20.7524 22.9603C20.8047 24.1549 20.8309 25.3754 20.9877 26.57C21.04 26.9336 21.0662 27.375 21.1708 27.7646C19.4713 26.9855 17.7979 26.1026 16.1768 25.1677C15.6016 24.8301 15.0525 24.5184 14.5035 24.1809C14.4773 24.1289 14.4512 24.077 14.3989 24.051C14.3727 24.025 14.3466 23.9991 14.2943 23.9731C14.2681 23.8952 14.242 23.8433 14.1897 23.7654C14.1635 23.7394 14.1636 23.7134 14.1374 23.7134C14.1113 23.6874 14.0851 23.6615 14.0851 23.6615C14.7388 22.9084 14.8434 21.4022 14.9218 20.5711C15.0002 19.5064 15.2617 17.8184 13.9544 17.351C11.6535 16.5459 12.464 21.2723 12.9347 23.194C12.2026 22.7266 11.4966 22.2332 10.8168 21.7138C9.43107 20.675 8.25449 19.4025 6.97332 18.2599C6.99946 18.182 7.02561 18.1041 7.05175 18.0262C7.0779 17.8963 7.05176 17.7925 6.97332 17.6886C7.62698 16.52 7.99302 14.9878 7.88844 13.7673C7.81 13.0142 7.05175 11.1703 6.0059 11.3781C5.11693 11.5599 5.45683 13.1959 5.45683 13.7673C5.45683 13.8192 5.45683 13.8711 5.45683 13.8971C5.06464 13.2219 4.56785 12.5727 3.99263 11.9234C3.28668 11.1184 1.58718 9.19669 0.436739 10.4432C-0.765991 11.7676 0.802784 13.9231 1.69176 14.9359C2.42386 15.7409 3.36512 16.2862 4.17566 16.9874C4.2541 17.0653 4.35869 17.1432 4.46328 17.2471C4.07108 17.2211 3.70503 17.2471 3.31283 17.2731C2.45001 17.2991 1.95323 17.2731 1.27342 17.8184C0.59362 18.3638 -0.216925 19.3246 0.332147 20.2335C0.985805 21.2723 2.94679 20.9867 3.88806 20.6231C4.77703 20.2595 5.92746 19.7142 6.58112 18.9091C8.38522 20.4932 10.0586 22.1553 12.098 23.5316C12.3333 23.6874 12.5948 23.8433 12.8301 24.025C12.4118 23.9731 11.9934 23.9212 11.6012 23.9731C10.66 24.077 9.82327 24.3367 8.90815 24.6223C7.75771 24.9859 6.37196 25.7909 7.15634 27.1673C7.83615 28.3619 9.64025 28.232 10.7384 27.8425C12.3333 27.2971 13.353 26.2324 14.059 24.8301C15.7585 25.8948 17.5364 26.8816 19.3405 27.7646C19.5235 27.8685 19.7066 27.9464 19.8896 28.0243C18.4254 28.1541 16.9351 28.4138 15.7062 29.063C14.7126 29.6084 13.6668 30.8809 14.7649 31.8677C15.7846 32.7766 17.641 32.3351 18.6607 31.7119C19.6543 31.0886 20.4648 30.3096 21.3538 29.5565C21.563 29.3747 21.7983 29.1929 21.9813 28.9851C23.9161 29.8421 25.9294 30.5692 27.9688 31.1406C27.6812 31.2704 27.3936 31.4262 27.1321 31.634C26.2954 32.2832 25.1712 32.8286 24.4652 33.6336C23.6024 34.6204 23.7593 36.5162 25.4065 36.4383C27.2106 36.3344 29.1193 35.4514 29.9559 33.7634C30.139 33.3739 30.5573 32.491 30.5834 31.8158C32.0215 32.1274 33.4857 32.3611 34.9499 32.5169C36.5709 32.6727 38.2705 32.6987 39.97 32.5948C39.9438 32.6468 39.8915 32.6727 39.8654 32.7247C39.1594 33.5557 38.2443 34.2828 37.6691 35.1917C37.0416 36.1786 36.7017 38.334 38.1136 38.8793C39.3947 39.3728 40.5975 38.308 41.1204 37.2693C41.591 36.3344 41.8264 35.2956 41.8786 34.2309C41.9048 33.6855 41.9571 33.0103 41.8786 32.4131C45.0424 32.0235 48.206 31.1665 51.056 29.7902C51.056 29.8161 51.0821 29.8681 51.0821 29.894C50.9253 30.2836 50.7161 30.7251 50.5854 30.9588C50.3239 31.5301 49.984 32.0495 49.7487 32.6468C49.3303 33.7115 49.0427 34.8022 48.912 35.9448C48.7813 37.0096 48.5982 39.8922 50.2455 39.996C52.0234 40.0999 52.6771 37.0355 52.6248 35.789C52.5725 34.4127 52.4156 33.0623 52.1803 31.6859C52.1019 31.1406 52.0234 30.5692 51.9188 30.0239C51.9973 29.7642 52.0496 29.5045 52.0496 29.2708C54.5596 27.8685 56.782 26.0247 58.4031 23.6355C59.0306 22.7266 59.6059 21.6619 60.1026 20.5452C60.5994 21.6878 61.1485 22.7266 61.8021 23.6355C63.4494 25.9987 65.6456 27.8685 68.1557 29.2708C68.1557 29.5305 68.208 29.7902 68.2864 30.0239C68.1818 30.5692 68.1034 31.1406 68.025 31.6859C67.7896 33.0363 67.6328 34.4127 67.5805 35.789C67.5282 37.0355 68.1818 40.1259 69.9598 39.996C71.5809 39.8922 71.3978 37.0096 71.2933 35.9448C71.1625 34.8282 70.8749 33.7115 70.4566 32.6468C70.2213 32.0495 69.9075 31.5301 69.6199 30.9588C69.4892 30.6991 69.28 30.2836 69.1231 29.894C69.1231 29.8681 69.1493 29.8161 69.1493 29.7902C71.9731 31.1925 75.1368 32.0495 78.3266 32.4131C78.2482 33.0363 78.3005 33.6855 78.3266 34.2309C78.3789 35.2697 78.6142 36.3084 79.0849 37.2693C79.6078 38.308 80.8105 39.3728 82.0917 38.8793C83.4774 38.334 83.1637 36.1786 82.5362 35.1917C81.9609 34.2828 81.0197 33.5557 80.3399 32.7247C80.3137 32.6727 80.2614 32.6468 80.2353 32.5948C81.9348 32.6987 83.6343 32.6727 85.2554 32.5169C86.7196 32.3611 88.1838 32.1274 89.6218 31.8158C89.648 32.491 90.0663 33.3739 90.2493 33.7634C91.0599 35.4514 92.9686 36.3344 94.7988 36.4383C96.4199 36.5421 96.5767 34.6204 95.7401 33.6336C95.0341 32.8286 93.9098 32.3092 93.0731 31.634C92.8117 31.4262 92.5241 31.2704 92.2364 31.1406C94.2759 30.5692 96.263 29.8421 98.224 28.9851C98.407 29.1929 98.6423 29.3747 98.8515 29.5565C99.7404 30.3096 100.551 31.0886 101.545 31.7119C102.564 32.3611 104.421 32.8026 105.44 31.8677C106.538 30.8809 105.493 29.6084 104.499 29.063C103.27 28.4138 101.78 28.1541 100.316 28.0243C100.499 27.9464 100.682 27.8425 100.865 27.7646C102.669 26.8557 104.421 25.8688 106.146 24.8301C106.852 26.2584 107.872 27.2971 109.467 27.8425C110.565 28.232 112.395 28.3619 113.049 27.1673C113.833 25.7909 112.421 24.9859 111.297 24.6223C110.408 24.3367 109.545 24.1029 108.604 23.9731C108.186 23.9212 107.767 23.9731 107.375 24.025C107.61 23.8692 107.872 23.7134 108.107 23.5316C110.147 22.1553 111.794 20.4932 113.624 18.9091C114.278 19.7142 115.402 20.2595 116.317 20.6231C117.258 21.0126 119.219 21.2983 119.873 20.2335C120.187 19.3246 119.402 18.3638 118.723 17.8184ZM2.47615 14.6502C1.79634 13.949 0.802794 12.7545 0.802794 11.7417C0.776648 9.94979 2.81605 11.7936 3.31283 12.3649C4.67244 13.8971 5.6137 15.4552 5.82287 17.4808C5.40453 17.2211 4.80318 16.4421 4.59401 16.2862C3.88806 15.7149 3.10366 15.2994 2.47615 14.6502ZM3.96649 19.6882C3.46971 19.9479 2.68533 20.2076 2.11011 20.1037C1.03811 19.896 1.03811 19.013 1.71791 18.4677C2.37157 17.9742 3.31283 17.9742 4.12336 18.0002C4.67244 18.0262 5.22152 18.1301 5.7183 18.3118C5.77059 18.3378 5.84903 18.3638 5.90133 18.3897C5.90133 18.3897 5.92746 18.3897 5.92746 18.4157C5.43069 18.987 4.54171 19.4025 3.96649 19.6882ZM6.16279 12.5986C6.24123 12.0014 6.34581 12.261 6.71185 12.8064C7.15634 13.5076 7.07791 14.1828 6.94718 14.9359C6.89489 15.1956 6.7903 15.9227 6.63342 16.52C6.31966 15.2475 5.97976 13.949 6.16279 12.5986ZM11.0783 26.8037C10.4769 27.1154 9.79712 27.3231 9.11732 27.2971C8.93429 27.2971 8.28063 27.2712 8.1499 27.0894C8.1499 26.6219 8.17604 26.1545 8.17604 25.6871C8.35907 25.6091 8.56824 25.5312 8.75126 25.4533C9.74482 25.1157 10.8168 24.8301 11.8627 24.7781C12.281 24.7522 12.6994 24.8041 13.1438 24.8041C12.6471 25.6351 12.0196 26.3363 11.0783 26.8037ZM13.6145 22.9084C13.3792 22.1553 13.2223 21.3502 13.17 20.5711C13.1439 20.1556 13.1438 19.7401 13.1438 19.3506C13.17 18.7274 13.0131 18.3118 13.6929 18.5975C14.3204 18.8312 14.1636 19.2208 14.1374 19.844C14.1374 20.3115 14.0851 20.7789 14.0328 21.2204C13.9805 21.6099 13.9021 22.4149 13.6145 22.9084ZM19.785 29.8161C18.896 30.6991 17.3011 31.8937 15.9415 31.5301C14.608 31.1665 15.5493 29.946 16.2814 29.6084C16.7782 29.3747 17.3795 29.2708 17.9025 29.1409C18.9745 28.8812 20.0465 28.7774 21.1446 28.6995C20.7263 29.115 20.0203 29.6084 19.785 29.8161ZM21.8244 27.3491C21.6414 26.6479 21.6675 25.6871 21.6414 25.0898C21.5891 24.2328 21.2231 22.6747 21.5368 21.8177C21.929 20.7529 22.4519 21.8696 22.635 22.363C22.9226 23.1681 22.9487 24.025 22.7918 24.882C22.7395 25.4793 22.3735 26.6739 21.8244 27.3491ZM28.9624 33.7375C28.3087 34.7503 27.2367 35.3216 26.0601 35.4255C25.7725 35.5813 25.4849 35.5553 25.1711 35.3476C24.5698 35.3476 24.4652 35.1398 24.8051 34.6724C24.9881 34.127 25.0143 34.0491 25.4326 33.7375C25.9294 33.3739 26.5046 33.0882 27.0014 32.6987C27.4459 32.3351 27.8642 31.9716 28.361 31.7378C28.5963 31.608 28.8578 31.5561 29.1192 31.4782C29.1454 31.4782 29.1715 31.4782 29.1977 31.5041C29.3023 31.634 29.433 31.66 29.5637 31.634C29.5899 31.66 29.6422 31.6859 29.6945 31.7119C29.9036 31.7638 29.0408 33.6076 28.9624 33.7375ZM29.5899 30.4913C29.5637 30.4913 29.5637 30.4913 29.5899 30.4913C29.4069 30.0499 29.2761 29.5824 29.067 29.1669C28.8055 28.5437 28.4917 27.9204 28.2303 27.2971C27.9688 26.6739 27.7335 26.0247 27.655 25.3754C27.6028 24.9339 27.4459 23.7134 27.8381 23.4277C28.544 22.9343 29.433 25.739 29.5637 26.2324C29.7206 26.7518 30.2958 29.8421 29.5899 30.4913ZM39.8131 29.946C39.3947 29.3747 38.9503 28.8033 38.5319 28.232C37.9044 27.401 36.2833 25.5053 36.4402 24.3626C36.6494 22.6746 38.375 24.5444 38.7149 25.0378C39.1594 25.713 39.4732 26.4661 39.7346 27.1933C40.0223 27.9723 40.9635 29.9979 40.8067 31.1146C40.7805 31.1146 40.7805 31.1146 40.7544 31.1146C40.4929 31.0886 39.9438 30.1278 39.8131 29.946ZM40.9897 33.8154C40.9897 34.5165 40.9112 35.2177 40.7021 35.8929C40.4406 36.8018 39.6039 38.6716 38.2966 38.0743C37.5906 37.7367 37.7737 36.4642 38.0613 35.8669C38.3489 35.2696 38.898 34.8282 39.3686 34.3348C39.8654 33.8154 40.336 33.0623 40.9112 32.491C40.9374 32.491 40.9635 32.491 40.9897 32.491C41.042 32.9324 40.9897 33.4518 40.9897 33.8154ZM50.6377 28.3878C50.0102 28.1282 49.1212 27.5049 48.729 27.2712C47.8139 26.7258 47.0295 25.9468 46.1928 25.3235C45.3561 24.6743 43.8919 23.4797 43.8396 22.2851C43.5782 21.8696 43.7089 21.7138 44.2057 21.8436C44.4933 21.7398 44.7547 21.7917 44.9901 21.9994C45.33 22.1553 45.696 22.389 45.9836 22.5967C46.7942 23.1161 47.3955 23.7654 48.023 24.4925C48.912 25.5053 50.3239 26.9076 50.9253 28.3099C50.8207 28.284 50.7161 28.3099 50.6377 28.3878ZM51.2913 37.9185C51.0037 38.4639 50.6115 39.4507 49.7487 38.5937C49.5134 38.36 49.5395 37.6848 49.5395 37.3991C49.4349 35.5813 49.984 33.6076 50.8207 31.9975C50.9514 31.7378 51.1083 31.4782 51.2652 31.1925C51.3175 31.5301 51.3436 31.8677 51.3959 32.1793C51.5266 33.0623 51.6312 33.9712 51.7097 34.8541C51.7358 35.9448 51.7881 36.9317 51.2913 37.9185ZM59.1875 10.0277C59.3182 8.88507 59.5797 7.79437 59.998 6.75561C60.4164 7.79437 60.6779 8.91103 60.8086 10.0277C61.0962 12.8064 60.8347 15.5851 59.998 18.182C59.1614 15.6111 58.8738 12.8324 59.1875 10.0277ZM69.1754 31.9975C70.0121 33.6076 70.535 35.5813 70.4566 37.3991C70.4304 37.6848 70.4827 38.36 70.2474 38.5937C69.3584 39.4507 68.9662 38.4639 68.7048 37.9185C68.1818 36.9057 68.2603 35.9189 68.3387 34.8541C68.391 33.9452 68.4956 33.0623 68.6525 32.1793C68.7048 31.8677 68.7309 31.5301 68.7832 31.1925C68.8878 31.4782 69.0447 31.7378 69.1754 31.9975ZM69.0447 28.284C69.646 26.9076 71.0841 25.5053 71.9469 24.4665C72.5744 23.7394 73.1758 23.0901 73.9863 22.5708C74.3001 22.389 74.6661 22.1293 74.9799 21.9735C75.2152 21.7657 75.4767 21.7138 75.7643 21.8177C76.261 21.6878 76.3656 21.8436 76.1303 22.2591C76.0519 23.4537 74.6138 24.6483 73.7772 25.2975C72.9405 25.9467 72.1561 26.6999 71.241 27.2452C70.8488 27.4789 69.9598 28.1022 69.3323 28.3619C69.2538 28.3099 69.1493 28.284 69.0447 28.284ZM80.2353 27.1933C80.4968 26.4402 80.8105 25.6871 81.255 25.0378C81.5687 24.5444 83.3206 22.7006 83.5297 24.3626C83.6866 25.4793 82.0655 27.401 81.438 28.232C80.9935 28.8033 80.5752 29.3747 80.1569 29.946C80.0261 30.1278 79.477 31.0886 79.2156 31.1146C79.1894 31.1146 79.1894 31.1146 79.1633 31.1146C79.0064 29.9979 79.9477 27.9723 80.2353 27.1933ZM80.5752 34.3088C81.0458 34.7762 81.5688 35.2177 81.8825 35.841C82.1701 36.4383 82.3793 37.7107 81.6472 38.0483C80.366 38.6716 79.5294 36.8018 79.2417 35.8669C79.0326 35.1917 78.9541 34.4906 78.9541 33.7894C78.9541 33.4258 78.9018 32.9065 78.928 32.465C78.9541 32.465 78.9803 32.465 79.0064 32.465C79.6078 33.0363 80.0784 33.8154 80.5752 34.3088ZM90.3801 26.2324C90.5108 25.739 91.4259 22.9343 92.1057 23.4277C92.4979 23.7134 92.341 24.9339 92.2887 25.3754C92.1842 26.0506 91.975 26.6999 91.7135 27.2971C91.4521 27.9204 91.1645 28.5437 90.8768 29.1669C90.6938 29.5824 90.5631 30.0758 90.3801 30.4913C90.3801 30.4913 90.3801 30.4913 90.3539 30.4913C89.648 29.8421 90.2232 26.7518 90.3801 26.2324ZM92.9424 32.6987C93.4392 33.0882 93.9883 33.3739 94.5112 33.7375C94.9295 34.0491 94.9818 34.127 95.1387 34.6724C95.4786 35.1398 95.374 35.3735 94.7726 35.3476C94.485 35.5553 94.1974 35.5813 93.8837 35.4255C92.6809 35.3216 91.6351 34.7503 90.9814 33.7375C90.903 33.6076 90.0402 31.7638 90.2493 31.6859C90.3016 31.66 90.3539 31.634 90.3801 31.608C90.5108 31.634 90.6415 31.608 90.7461 31.4782C90.7723 31.4782 90.7984 31.4782 90.8246 31.4522C91.086 31.5301 91.3213 31.608 91.5828 31.7119C92.1057 31.9716 92.4979 32.3351 92.9424 32.6987ZM98.3024 25.0898C98.2762 25.6871 98.3024 26.6219 98.1194 27.3491C97.5964 26.6739 97.2304 25.4793 97.1258 24.908C96.9951 24.051 97.0212 23.194 97.2827 22.389C97.4396 21.8956 97.9886 20.7529 98.3808 21.8436C98.7207 22.7006 98.3547 24.2328 98.3024 25.0898ZM102.067 29.1409C102.59 29.2708 103.192 29.4006 103.689 29.6084C104.421 29.946 105.362 31.1406 104.028 31.5301C102.669 31.9196 101.074 30.6991 100.185 29.8161C99.9758 29.6084 99.2437 29.089 98.8515 28.6995C99.9235 28.7774 100.995 28.8812 102.067 29.1409ZM106.774 20.5711C106.721 21.3762 106.565 22.1553 106.329 22.9084C106.068 22.4149 105.963 21.6099 105.911 21.2204C105.859 20.7529 105.806 20.2855 105.806 19.844C105.78 19.2208 105.623 18.8312 106.251 18.5975C106.931 18.3378 106.774 18.7533 106.8 19.3506C106.8 19.7401 106.8 20.1556 106.774 20.5711ZM108.107 24.7781C109.179 24.8301 110.225 25.1157 111.219 25.4533C111.402 25.5312 111.611 25.6091 111.794 25.6871C111.794 26.1545 111.82 26.6219 111.82 27.0894C111.689 27.2452 111.036 27.2712 110.853 27.2971C110.173 27.3231 109.493 27.1154 108.892 26.8037C107.95 26.3363 107.323 25.6351 106.826 24.8041C107.244 24.8041 107.689 24.7522 108.107 24.7781ZM113.31 16.5459C113.153 15.9227 113.049 15.2215 112.997 14.9618C112.866 14.2087 112.787 13.5335 113.232 12.8324C113.598 12.287 113.703 12.0273 113.781 12.6246C113.964 13.949 113.624 15.2475 113.31 16.5459ZM116.631 12.3649C117.128 11.7936 119.167 9.94979 119.141 11.7417C119.141 12.7545 118.147 13.949 117.468 14.6502C116.814 15.2994 116.056 15.7149 115.35 16.2862C115.167 16.4421 114.539 17.2211 114.121 17.4808C114.356 15.4552 115.271 13.8971 116.631 12.3649ZM117.86 20.0777C117.258 20.1816 116.5 19.9219 116.003 19.6622C115.428 19.3766 114.539 18.9611 114.042 18.3897C114.042 18.3897 114.069 18.3897 114.069 18.3638C114.121 18.3378 114.199 18.3118 114.252 18.2859C114.748 18.1041 115.324 18.0002 115.847 17.9742C116.657 17.9483 117.598 17.9483 118.252 18.4417C118.932 18.987 118.906 19.896 117.86 20.0777Z" fill="#9CA3AF"/>
</svg>
