<svg width="108" height="74" viewBox="0 0 108 74" fill="none" xmlns="http://www.w3.org/2000/svg">
<path d="M107.927 68.9505C107.925 70.2892 107.394 71.5727 106.451 72.5193C105.507 73.466 104.227 73.9985 102.892 74H5.10776C3.77295 73.9985 2.49326 73.466 1.54941 72.5193C0.605561 71.5727 0.0746294 70.2892 0.0730896 68.9505V5.04953C0.0746294 3.71078 0.605561 2.42731 1.54941 1.48068C2.49326 0.534042 3.77295 0.00154432 5.10776 0H102.892C104.227 0.00154432 105.507 0.534042 106.451 1.48068C107.394 2.42731 107.925 3.71078 107.927 5.04953V68.9505ZM60.1792 47.7292H44.0034C43.2227 47.7307 42.4745 48.0427 41.9229 48.5969C41.3714 49.151 41.0615 49.9019 41.0613 50.6849V55.7748C41.0615 56.5577 41.3714 57.3086 41.9229 57.8627C42.4744 58.4169 43.2225 58.7289 44.0032 58.7305H60.1792C60.9599 58.729 61.7081 58.4169 62.2597 57.8628C62.8112 57.3087 63.1211 56.5578 63.1213 55.7748V50.6849C63.1211 49.9019 62.8112 49.151 62.2597 48.5969C61.7081 48.0427 60.9599 47.7307 60.1792 47.7292ZM59.7648 55.3641H44.4178V51.0956H59.7648V55.3641ZM102.022 4.26853H5.97753C5.53243 4.26853 5.10557 4.44587 4.79084 4.76152C4.47612 5.07718 4.2993 5.5053 4.2993 5.95171V68.0483C4.2993 68.4947 4.47612 68.9228 4.79084 69.2385C5.10557 69.5541 5.53243 69.7315 5.97753 69.7315H102.022C102.468 69.7315 102.894 69.5541 103.209 69.2385C103.524 68.9228 103.701 68.4947 103.701 68.0483V5.95171C103.701 5.5053 103.524 5.07718 103.209 4.76152C102.894 4.44587 102.468 4.26853 102.022 4.26853ZM17.7173 58.7302H33.8931C34.6738 58.7287 35.422 58.4167 35.9735 57.8626C36.5251 57.3085 36.835 56.5576 36.8351 55.7746V50.6851C36.835 49.9022 36.5251 49.1513 35.9736 48.5972C35.4221 48.0431 34.674 47.731 33.8933 47.7295H17.7173C16.9366 47.7309 16.1883 48.043 15.6367 48.5971C15.0851 49.1512 14.7752 49.9021 14.775 50.6851V55.775C14.7752 56.558 15.0851 57.309 15.6367 57.8631C16.1883 58.4172 16.9366 58.7287 17.7173 58.7302ZM18.1314 51.0956H33.4787V55.3641H18.1314V51.0956ZM61.443 33.9056H79.2749C79.72 33.9056 80.1469 33.7283 80.4616 33.4127C80.7763 33.097 80.9532 32.6689 80.9532 32.2225C80.9532 31.7761 80.7763 31.3479 80.4616 31.0323C80.1469 30.7166 79.72 30.5393 79.2749 30.5393H61.443C60.9979 30.5393 60.5711 30.7166 60.2563 31.0323C59.9416 31.3479 59.7648 31.7761 59.7648 32.2225C59.7648 32.6689 59.9416 33.097 60.2563 33.4127C60.5711 33.7283 60.9979 33.9056 61.443 33.9056ZM19.8247 42.6647H43.8038C44.8064 42.6562 45.7737 42.2923 46.5345 41.6374C47.2954 40.9824 47.8007 40.0787 47.9611 39.086C48.1215 38.0933 47.9265 37.0758 47.4108 36.2134C46.8951 35.351 46.0919 34.6994 45.1432 34.3738C45.0885 31.5991 44.174 28.9102 42.5266 26.6804C40.8792 24.4506 38.5805 22.7904 35.9497 21.9302C36.2348 21.3114 36.3827 20.638 36.3831 19.9564C36.3936 19.3439 36.2823 18.7354 36.0558 18.1664C35.8293 17.5975 35.4921 17.0794 35.0639 16.6425C34.6356 16.2057 34.125 15.8587 33.5617 15.6218C32.9983 15.385 32.3936 15.263 31.7828 15.263C31.172 15.263 30.5672 15.385 30.0039 15.6218C29.4406 15.8587 28.9299 16.2057 28.5017 16.6425C28.0735 17.0794 27.7363 17.5975 27.5098 18.1664C27.2833 18.7354 27.172 19.3439 27.1824 19.9564C27.1831 20.6513 27.337 21.3374 27.6331 21.9657C25.0309 22.8403 22.7615 24.4994 21.1348 26.7163C19.5081 28.9332 18.6036 31.5997 18.5447 34.3516C17.5865 34.6653 16.7707 35.3103 16.2429 36.1716C15.7152 37.0329 15.5099 38.0543 15.6637 39.0534C15.8175 40.0525 16.3204 40.9643 17.0827 41.6258C17.8449 42.2873 18.8167 42.6555 19.8247 42.6647ZM31.783 18.6361C32.0466 18.6211 32.3085 18.6859 32.535 18.8219C32.7615 18.9579 32.942 19.159 33.0533 19.3991C33.1646 19.6392 33.2014 19.9073 33.1591 20.1686C33.1168 20.4299 32.9972 20.6725 32.8159 20.8649C32.6346 21.0574 32.3998 21.1908 32.1421 21.2479C31.8843 21.305 31.6154 21.2832 31.3701 21.1854C31.1248 21.0875 30.9144 20.918 30.7663 20.6989C30.6181 20.4798 30.5389 20.2212 30.5389 19.9564C30.5299 19.616 30.6558 19.2859 30.889 19.0385C31.1222 18.791 31.4437 18.6463 31.783 18.6361ZM31.8436 24.6432C34.3998 24.6463 36.8569 25.6348 38.7066 27.4042C40.5563 29.1736 41.657 31.5885 41.781 34.1491H21.9063C22.0303 31.5885 23.131 29.1736 24.9807 27.4042C26.8304 25.6348 29.2875 24.6463 31.8436 24.6432ZM19.8247 37.5155H43.8038C44.0335 37.5245 44.2509 37.6223 44.4103 37.7885C44.5697 37.9547 44.6587 38.1763 44.6587 38.4069C44.6587 38.6375 44.5697 38.8591 44.4103 39.0253C44.2509 39.1915 44.0335 39.2894 43.8038 39.2983H19.8247C19.5949 39.2894 19.3776 39.1915 19.2182 39.0253C19.0588 38.8591 18.9697 38.6375 18.9697 38.4069C18.9697 38.1763 19.0588 37.9547 19.2182 37.7885C19.3776 37.6223 19.5949 37.5245 19.8247 37.5155ZM61.4428 18.6361H91.0836C91.5287 18.6361 91.9555 18.4588 92.2703 18.1431C92.585 17.8275 92.7618 17.3993 92.7618 16.9529C92.7618 16.5065 92.585 16.0784 92.2703 15.7628C91.9555 15.4471 91.5287 15.2698 91.0836 15.2698H61.443C60.9979 15.2698 60.5711 15.4471 60.2563 15.7628C59.9416 16.0784 59.7648 16.5065 59.7648 16.9529C59.7648 17.3993 59.9416 17.8275 60.2563 18.1431C60.5711 18.4588 60.9977 18.6361 61.4428 18.6361ZM61.4428 26.271H91.0836C91.5287 26.271 91.9555 26.0937 92.2703 25.778C92.585 25.4623 92.7618 25.0342 92.7618 24.5878C92.7618 24.1414 92.585 23.7133 92.2703 23.3976C91.9555 23.082 91.5287 22.9046 91.0836 22.9046H61.443C60.9979 22.9046 60.5711 23.082 60.2563 23.3976C59.9416 23.7133 59.7648 24.1414 59.7648 24.5878C59.7648 25.0342 59.9416 25.4623 60.2563 25.778C60.5711 26.0937 60.9977 26.271 61.4428 26.271ZM91.6929 44.9309L74.4631 38.1982C74.1595 38.0796 73.828 38.0522 73.5092 38.1194C73.1903 38.1866 72.8978 38.3454 72.6674 38.5765C72.437 38.8076 72.2787 39.101 72.2118 39.4208C72.1448 39.7406 72.1721 40.0731 72.2904 40.3776L79.0033 57.6582C79.1259 57.9739 79.3407 58.2452 79.6196 58.4365C79.8984 58.6279 80.2284 58.7303 80.5663 58.7305C80.6092 58.7305 80.6526 58.7289 80.6961 58.7253C81.0551 58.6976 81.3956 58.5547 81.6675 58.3179C81.9393 58.0811 82.128 57.7628 82.2056 57.4102L83.4474 51.7691L89.4322 57.7713C89.5881 57.9276 89.7731 58.0516 89.9767 58.1362C90.1803 58.2207 90.3986 58.2643 90.6189 58.2643C90.8393 58.2643 91.0576 58.2207 91.2612 58.1362C91.4648 58.0516 91.6498 57.9276 91.8057 57.7713C91.9615 57.615 92.0851 57.4294 92.1695 57.2252C92.2538 57.021 92.2972 56.8021 92.2972 56.581C92.2972 56.36 92.2538 56.1411 92.1695 55.9369C92.0851 55.7327 91.9615 55.5471 91.8057 55.3908L85.8209 49.3884L91.4456 48.1428C91.7972 48.065 92.1145 47.8757 92.3507 47.6031C92.5868 47.3305 92.7293 46.9889 92.757 46.6288C92.7847 46.2688 92.6962 45.9093 92.5046 45.6036C92.313 45.2978 92.0284 45.062 91.6929 44.9309ZM82.1069 46.7633C82.0984 46.7656 82.0903 46.7689 82.0818 46.7709C82.0194 46.7857 81.9579 46.8041 81.8977 46.8259C81.8865 46.83 81.8753 46.8333 81.8641 46.8378C81.7965 46.8639 81.7308 46.8943 81.6672 46.9289C81.6571 46.9343 81.6479 46.9406 81.6381 46.946C81.5852 46.9764 81.5341 47.0096 81.4848 47.0456L81.4434 47.0761C81.3291 47.1623 81.2275 47.2642 81.1416 47.3789L81.112 47.4193C81.0756 47.4694 81.042 47.5214 81.0113 47.5753C81.0062 47.5842 81.0006 47.593 80.9957 47.6022C80.9607 47.6665 80.9299 47.7331 80.9037 47.8015C80.8999 47.8114 80.897 47.8217 80.8932 47.8318C80.8707 47.8938 80.8519 47.9572 80.8368 48.0214C80.835 48.0291 80.8319 48.0362 80.8301 48.0439L80.1212 51.2637L76.8046 42.7259L85.3172 46.0523L82.1069 46.7633Z" fill="#F4900C"/>
</svg>
