<svg width="116" height="74" viewBox="0 0 116 74" fill="none" xmlns="http://www.w3.org/2000/svg">
<path d="M5.63225 15.6298H18.3934C18.8395 15.6298 19.2673 15.4526 19.5828 15.1372C19.8982 14.8217 20.0754 14.3939 20.0754 13.9478C20.0754 13.5017 19.8982 13.0738 19.5828 12.7584C19.2673 12.4429 18.8395 12.2657 18.3934 12.2657H5.63225C5.18614 12.2657 4.75831 12.4429 4.44286 12.7584C4.12742 13.0738 3.9502 13.5017 3.9502 13.9478C3.9502 14.3939 4.12742 14.8217 4.44286 15.1372C4.75831 15.4526 5.18614 15.6298 5.63225 15.6298ZM8.99634 8.90162H18.3934C18.8395 8.90162 19.2673 8.72441 19.5828 8.40896C19.8982 8.09352 20.0754 7.66568 20.0754 7.21957C20.0754 6.77347 19.8982 6.34563 19.5828 6.03019C19.2673 5.71474 18.8395 5.53753 18.3934 5.53753H8.99634C8.55024 5.53753 8.1224 5.71474 7.80696 6.03019C7.49151 6.34563 7.3143 6.77347 7.3143 7.21957C7.3143 7.66568 7.49151 8.09352 7.80696 8.40896C8.1224 8.72441 8.55024 8.90162 8.99634 8.90162ZM2.26815 22.358H18.3934C18.8395 22.358 19.2673 22.1808 19.5828 21.8653C19.8982 21.5499 20.0754 21.1221 20.0754 20.676C20.0754 20.2298 19.8982 19.802 19.5828 19.4866C19.2673 19.1711 18.8395 18.9939 18.3934 18.9939H2.26815C1.82205 18.9939 1.39421 19.1711 1.07877 19.4866C0.763321 19.802 0.586105 20.2298 0.586105 20.676C0.586105 21.1221 0.763321 21.5499 1.07877 21.8653C1.39421 22.1808 1.82205 22.358 2.26815 22.358ZM113.732 70.6359H107.38C109.524 68.7375 110.954 66.1617 111.431 63.3374C111.973 60.1252 111.259 56.8277 109.438 54.1269L110.399 53.555C110.782 53.3269 111.059 52.9559 111.169 52.5235C111.279 52.0911 111.212 51.6329 110.984 51.2495C109.444 48.669 107.172 46.6044 104.456 45.318C101.741 44.0317 98.7038 43.5817 95.7317 44.0252C94.2975 40.6125 92.8211 35.7473 91.3911 31.0318C90.5575 28.2831 89.7023 25.4637 88.8465 22.9012H89.7595C90.2056 22.9012 90.6335 22.724 90.9489 22.4085C91.2644 22.0931 91.4416 21.6652 91.4416 21.2191V11.3305C91.4416 10.8844 91.2644 10.4566 90.9489 10.1411C90.6335 9.82566 90.2056 9.64845 89.7595 9.64845H82.9495C81.4854 9.65036 80.063 10.1363 78.9038 11.0305C77.7446 11.9247 76.9135 13.1772 76.54 14.5928H70.1042C69.6581 14.5928 69.2303 14.77 68.9148 15.0854C68.5994 15.4009 68.4222 15.8287 68.4222 16.2748C68.4222 16.7209 68.5994 17.1488 68.9148 17.4642C69.2303 17.7796 69.6581 17.9569 70.1042 17.9569H76.54C76.7894 18.9036 77.246 19.7831 77.8766 20.532C77.8913 20.6307 77.9147 20.728 77.9466 20.8226C78.8841 23.5653 80.5336 29.7251 80.652 30.2845C82.492 38.9737 82.7494 49.7581 73.5273 51.7891C71.5128 52.2222 69.4195 52.1136 67.4607 51.4743C65.5018 50.835 63.7474 49.6879 62.3762 48.1498C58.9063 44.1766 58.6757 38.062 61.8144 33.2767C62.6805 32.7249 63.3442 31.9068 63.7056 30.9456C64.0671 29.9843 64.1069 28.9317 63.819 27.9459C63.5312 26.9601 62.9312 26.0943 62.1093 25.4786C61.2874 24.8629 60.2878 24.5305 59.2609 24.5314H53.1299C53.1583 24.3458 53.1733 24.1585 53.1748 23.9707V3.92478C53.1736 2.88423 52.7597 1.88663 52.0239 1.15085C51.2881 0.41507 50.2905 0.00118717 49.25 0H27.3641C26.3235 0.00118717 25.3259 0.41507 24.5902 1.15085C23.8544 1.88663 23.4405 2.88423 23.4393 3.92478V23.9707C23.4405 25.0113 23.8544 26.0089 24.5902 26.7447C25.3259 27.4805 26.3235 27.8943 27.3641 27.8955H29.9836C29.7186 28.7611 29.7078 29.6845 29.9523 30.556C30.1968 31.4276 30.6864 32.2106 31.3629 32.812C30.7831 33.0803 30.2155 33.3742 29.6618 33.6928C23.8979 37.0237 19.0216 43.5114 17.2382 50.2212C16.1276 54.3994 16.3743 58.1955 17.9276 60.9262L17.9347 60.9395C17.9469 60.9608 17.9576 60.9834 17.97 61.0045C17.9756 61.0146 17.983 61.0229 17.9888 61.0328C18.0153 61.0761 18.0437 61.1183 18.074 61.1592C18.083 61.1714 18.0913 61.1844 18.1007 61.1962C18.1405 61.2467 18.1831 61.2949 18.2283 61.3405C18.2409 61.3532 18.2541 61.3651 18.2671 61.3772C18.3036 61.4121 18.3417 61.4452 18.3815 61.4766C18.3952 61.4876 18.4086 61.4983 18.4228 61.5087C18.4733 61.5465 18.5259 61.5815 18.5804 61.6134L18.5865 61.6172C18.6456 61.651 18.7067 61.6811 18.7695 61.7074C18.7825 61.7127 18.7957 61.7172 18.8087 61.7222C18.8572 61.7413 18.9068 61.7582 18.9577 61.7729C18.9769 61.7785 18.996 61.7836 19.0155 61.7886C19.0335 61.793 19.051 61.7991 19.0693 61.8029C19.1007 61.8096 19.1321 61.8132 19.1635 61.8182C19.1815 61.8209 19.1994 61.8244 19.2174 61.8267C19.2865 61.8358 19.3562 61.8407 19.4259 61.8413C19.4291 61.8413 19.4322 61.8404 19.4354 61.8404H19.4454L25.4089 61.7628C25.4929 63.455 25.9172 65.1128 26.6564 66.6374C27.3955 68.1619 28.4344 69.5219 29.7109 70.6359H2.26815C1.82205 70.6359 1.39421 70.8131 1.07877 71.1286C0.763321 71.444 0.586105 71.8718 0.586105 72.318C0.586105 72.7641 0.763321 73.1919 1.07877 73.5073C1.39421 73.8228 1.82205 74 2.26815 74H113.732C114.178 74 114.606 73.8228 114.921 73.5073C115.237 73.1919 115.414 72.7641 115.414 72.318C115.414 71.8718 115.237 71.444 114.921 71.1286C114.606 70.8131 114.178 70.6359 113.732 70.6359ZM97.9587 47.2211C99.7159 47.2195 101.451 47.6106 103.038 48.3657C104.625 49.1208 106.023 50.2208 107.13 51.5855L106.325 52.0645C106.132 52.1357 105.953 52.242 105.798 52.3781L86.4396 63.8974C85.3585 61.2828 85.2539 58.3666 86.1448 55.6813C87.0358 52.9959 88.8629 50.7206 91.2924 49.2708L91.9594 48.8738C93.7733 47.7913 95.8464 47.2202 97.9587 47.2211ZM101.482 61.632C101.384 62.206 101.091 62.7286 100.652 63.1121C100.214 63.4955 99.6572 63.7164 99.0753 63.7376C98.4933 63.7588 97.9218 63.579 97.4568 63.2284C96.9918 62.8778 96.6616 62.3779 96.5218 61.8125L100.693 59.3303C101.007 59.6172 101.244 59.9783 101.382 60.3805C101.519 60.7826 101.554 61.213 101.482 61.632ZM79.6872 16.275C79.6881 15.4101 80.0321 14.5809 80.6437 13.9692C81.2553 13.3576 82.0845 13.0136 82.9495 13.0125H88.0775V19.5371H82.9495C82.0846 19.5361 81.2554 19.1921 80.6438 18.5805C80.0322 17.9689 79.6882 17.1397 79.6872 16.2748V16.275ZM59.2609 27.8955C59.6279 27.8932 59.9808 28.0368 60.2419 28.2947C60.5031 28.5527 60.6511 28.9037 60.6534 29.2708C60.6557 29.6378 60.5121 29.9907 60.2542 30.2518C59.9962 30.513 59.6452 30.661 59.2781 30.6633H43.2731C42.2298 30.6039 41.184 30.6042 40.1407 30.6642H34.5251C34.3418 30.6665 34.1599 30.6324 33.9899 30.5639C33.8199 30.4954 33.6652 30.3938 33.5348 30.265C33.4044 30.1362 33.3008 29.9828 33.2301 29.8137C33.1595 29.6446 33.1231 29.4631 33.1231 29.2799C33.1231 29.0966 33.1595 28.9151 33.2301 28.746C33.3008 28.5769 33.4044 28.4235 33.5348 28.2947C33.6652 28.1659 33.8199 28.0643 33.9899 27.9958C34.1599 27.9273 34.3418 27.8932 34.5251 27.8955H59.2609ZM27.3641 24.5314C27.2154 24.5313 27.0729 24.4721 26.9678 24.367C26.8627 24.2619 26.8036 24.1194 26.8034 23.9707V3.92478C26.8036 3.77613 26.8627 3.63362 26.9678 3.52851C27.0729 3.4234 27.2154 3.36427 27.3641 3.36409H49.2498C49.3984 3.36427 49.5409 3.4234 49.646 3.52851C49.7511 3.63362 49.8103 3.77613 49.8104 3.92478V23.9707C49.8103 24.1194 49.7511 24.2619 49.646 24.367C49.5409 24.4721 49.3984 24.5313 49.2498 24.5314H27.3641ZM20.4894 51.0854C22.0549 45.1955 26.3161 39.512 31.3449 36.6056C34.0648 35.07 37.1045 34.1876 40.2239 34.0283H57.603C55.2123 39.5768 56.0004 45.9636 59.8426 50.3627C61.2575 51.9535 62.9936 53.2262 64.9364 54.0969C66.8792 54.9675 68.9845 55.4163 71.1135 55.4136C72.1685 55.4142 73.2205 55.3005 74.251 55.0745C83.5478 53.0271 86.9898 43.9757 83.9432 29.5879C83.8286 29.0465 82.9499 25.7418 82.0986 22.8447C82.3807 22.8817 82.6649 22.9006 82.9495 22.9012H85.2945C86.2532 25.6822 87.2266 28.8915 88.1719 32.008C89.5687 36.615 91.0096 41.3629 92.4533 44.9008C91.6871 45.2008 90.9467 45.5627 90.2392 45.9829L89.5723 46.3799C87.5707 47.5713 85.8716 49.2092 84.6075 51.1657C83.3434 53.1221 82.5486 55.3442 82.285 57.6586L56.5133 57.9939C54.8144 50.1865 49.3635 43.9319 42.5978 42.1988C37.9897 41.018 32.7552 41.9435 28.2354 44.7375C24.7367 46.9267 21.8905 50.0157 19.9945 53.6815C20.0944 52.805 20.2599 51.9372 20.4894 51.0854ZM21.6278 58.4476C23.1049 53.9069 26.0797 50.0248 30.0042 47.599C33.7503 45.2832 38.0361 44.5029 41.7629 45.4572C47.1201 46.8298 51.4909 51.7705 53.0703 58.0385L21.6278 58.4476ZM40.519 61.5663C40.4188 62.1497 40.1174 62.6797 39.6672 63.0641C39.2171 63.4486 38.6465 63.6633 38.0545 63.671C37.4626 63.6787 36.8866 63.4789 36.4266 63.1063C35.9666 62.7337 35.6515 62.2118 35.5361 61.6311L40.519 61.5663ZM38.0229 70.4015C35.6674 70.3986 33.4013 69.4996 31.6843 67.8872C29.9673 66.2747 28.928 64.0694 28.7772 61.7188L32.1485 61.6749C32.2833 63.1536 32.9709 64.5271 34.074 65.5211C35.1771 66.5151 36.6145 67.0565 38.0992 67.0372C39.584 67.0179 41.0068 66.4393 42.0837 65.4169C43.1605 64.3946 43.8122 63.0037 43.9085 61.5219L47.2797 61.4782C47.1888 63.8734 46.174 66.1405 44.4482 67.804C42.7224 69.4675 40.4197 70.3983 38.0227 70.4013L38.0229 70.4015ZM46.3308 70.6359C47.6491 69.4855 48.7134 68.0733 49.4562 66.4891C50.1989 64.905 50.6037 63.1836 50.645 61.4344L55.0203 61.3777C55.096 61.3818 55.1719 61.3809 55.2475 61.3748L82.271 61.0231C82.5013 63.1798 83.1954 65.2612 84.3056 67.1245C84.5338 67.5078 84.9048 67.7848 85.3372 67.8946C85.7696 68.0044 86.2278 67.9379 86.6112 67.7098L87.772 67.0191C88.483 68.3865 89.4383 69.6123 90.5907 70.6359H46.3308ZM104.333 68.7679C103.239 69.542 101.99 70.0694 100.672 70.3138C99.3545 70.5582 97.9993 70.5138 96.7003 70.1836C95.4013 69.8534 94.1894 69.2453 93.1482 68.4013C92.1071 67.5573 91.2614 66.4974 90.6696 65.2948L93.5791 63.5634C93.9698 64.4594 94.577 65.2443 95.3463 65.8474C96.1155 66.4505 97.0225 66.853 97.9859 67.0186C98.3193 67.0759 98.657 67.1047 98.9953 67.1047C100.099 67.1025 101.18 66.7906 102.115 66.2045C103.051 65.6184 103.803 64.7817 104.286 63.7894C104.77 62.7971 104.965 61.689 104.85 60.5912C104.735 59.4935 104.314 58.45 103.636 57.5794L106.543 55.8494C107.247 56.8425 107.748 57.9646 108.018 59.1515C108.288 60.3384 108.321 61.5669 108.116 62.7666C107.91 63.9664 107.471 65.1139 106.822 66.1437C106.173 67.1734 105.327 68.0651 104.333 68.7679Z" fill="#F4900C"/>
</svg>
