<svg width="24" height="25" viewBox="0 0 24 25" fill="none" xmlns="http://www.w3.org/2000/svg">
<path fill-rule="evenodd" clip-rule="evenodd" d="M3.5 10.8178C3.5 6.21789 7.34388 2.5 11.9934 2.5C16.6561 2.5 20.5 6.21789 20.5 10.8178C20.5 13.1357 19.657 15.2876 18.2695 17.1116C16.7388 19.1235 14.8522 20.8765 12.7285 22.2524C12.2425 22.5704 11.8039 22.5944 11.2704 22.2524C9.13474 20.8765 7.24809 19.1235 5.7305 17.1116C4.34198 15.2876 3.5 13.1357 3.5 10.8178ZM9.19423 11.0768C9.19423 12.6177 10.4517 13.8297 11.9934 13.8297C13.5362 13.8297 14.8058 12.6177 14.8058 11.0768C14.8058 9.5478 13.5362 8.27683 11.9934 8.27683C10.4517 8.27683 9.19423 9.5478 9.19423 11.0768Z" fill="white"/>
</svg>
