<svg width="40" height="120" viewBox="0 0 40 120" fill="none" xmlns="http://www.w3.org/2000/svg">
<path d="M17.8184 118.723C17.2731 118.043 17.2991 117.52 17.2731 116.683C17.2471 116.291 17.2211 115.925 17.2471 115.533C17.1432 115.637 17.0653 115.716 16.9874 115.82C16.2863 116.657 15.7669 117.572 14.9359 118.304C13.949 119.219 11.7676 120.762 10.4432 119.559C9.17072 118.409 11.1184 116.709 11.9234 116.003C12.5727 115.428 13.2219 114.958 13.8971 114.539C13.8452 114.539 13.7932 114.539 13.7673 114.539C13.1959 114.539 11.5599 114.879 11.3781 113.99C11.1704 112.944 13.0142 112.186 13.7673 112.108C14.9618 112.003 16.52 112.369 17.6886 113.023C17.7665 112.944 17.8963 112.918 18.0262 112.944C18.1041 112.97 18.182 112.997 18.2599 113.023C19.4025 111.742 20.675 110.565 21.7138 109.179C22.2332 108.499 22.7266 107.794 23.194 107.061C21.2723 107.558 16.546 108.343 17.351 106.042C17.8184 104.734 19.5064 104.996 20.5711 105.074C21.4022 105.153 22.9084 105.231 23.6615 105.911C23.6874 105.885 23.6874 105.859 23.7134 105.859C23.7394 105.833 23.7654 105.833 23.7654 105.806C23.8433 105.754 23.8952 105.702 23.9731 105.702C23.9991 105.676 24.025 105.649 24.051 105.597C24.077 105.545 24.1289 105.519 24.1809 105.493C24.5185 104.944 24.856 104.368 25.1677 103.819C26.1026 102.198 26.9855 100.525 27.7646 98.8253C27.3751 98.9299 26.9336 98.9561 26.57 99.0083C25.3754 99.1652 24.1549 99.1914 22.9603 99.2437C22.1553 99.2698 19.9479 99.3483 20.3374 97.9364C20.701 96.5506 23.2719 96.263 24.3626 96.3414C25.4014 96.4199 27.1154 96.8643 28.0243 97.7272C28.1022 97.6749 28.2061 97.6487 28.284 97.6487C29.0111 96.0015 29.6344 94.302 30.1537 92.5764C30.2836 92.158 30.4134 91.7135 30.5173 91.269C29.8681 91.5305 29.1669 91.7658 28.5437 92.0273C27.5309 92.4979 26.4921 92.9686 25.3754 93.0993C24.5704 93.2039 21.8696 93.0993 22.4669 91.6351C22.9863 90.3278 25.7909 89.6218 26.9596 89.4388C27.9204 89.2819 29.972 88.9943 30.9069 89.7525C31.634 86.4581 31.9196 83.0591 31.7119 79.7124C31.5041 80 31.1665 80.2091 30.8549 80.4445C29.7642 81.2811 28.6735 82.1701 27.5309 82.9022C26.622 83.4774 23.8173 85.3338 22.9603 83.765C22.0514 82.1178 24.7002 80.4706 25.8169 79.9477C27.1154 79.3463 28.5177 78.9018 29.8941 78.5881C30.2836 78.4835 30.7251 78.405 31.1406 78.4312C31.1146 78.405 31.1146 78.3528 31.0886 78.3266C31.0107 78.1436 31.1406 77.8821 31.3483 77.8298C31.3743 77.8298 31.4262 77.8037 31.4522 77.8037C31.4782 77.8037 31.4782 77.8037 31.5041 77.8037C31.1406 74.9799 30.3615 72.2084 29.1669 69.6199C28.9072 70.352 28.3878 70.9533 27.9723 71.6331C27.3231 72.7574 26.3623 73.7772 25.5572 74.7969C24.8301 75.712 22.7266 77.5684 21.3502 76.9931C19.7661 76.3133 21.7917 73.6726 22.363 72.9405C23.194 71.8685 24.3886 71.0056 25.4533 70.169C26.3103 69.4892 27.3231 68.5479 28.4138 68.1818C26.3623 64.5213 23.1421 61.9067 19.4025 60.4425C15.0397 62.0375 9.71607 62.4035 5.69087 60.4948C3.40559 61.6976 1.61372 63.6585 1.0424 66.43C0.263332 70.0905 1.12032 74.0648 4.10676 76.4441C7.19708 78.9018 11.6638 80.0523 15.0657 77.5161C16.8316 76.1826 17.7405 74.2478 17.0653 72.0515C16.4161 69.9598 14.858 68.2603 12.6766 67.8942C12.1831 67.8158 12.3649 67.0575 12.8583 67.136C16.1304 67.6851 18.7274 71.3455 18.0002 74.6923C17.2471 78.1174 13.3518 79.8431 10.1576 79.7385C6.91142 79.6078 3.37962 77.5684 1.58776 74.8491C-0.515739 71.6854 -0.489771 66.6392 1.43194 63.3971C2.31489 61.9329 3.4835 60.8347 4.83389 59.998C3.4835 59.1875 2.31489 58.0894 1.43194 56.599C-0.489772 53.383 -0.51574 48.3106 1.58776 45.1469C3.40559 42.4277 6.91142 40.3883 10.1576 40.2576C13.3517 40.1268 17.2471 41.8525 18.0002 45.3038C18.7274 48.6505 16.1564 52.311 12.8583 52.8601C12.3649 52.9385 12.1831 52.1803 12.6766 52.1018C14.8839 51.7358 16.4421 50.0363 17.0653 47.9446C17.7405 45.7483 16.8576 43.8135 15.0657 42.48C11.6638 39.9438 7.19708 41.1204 4.10676 43.552C1.12032 45.9313 0.263331 49.9056 1.0424 53.5661C1.61372 56.3114 3.40559 58.2985 5.69087 59.5013C9.71607 57.5926 15.0397 57.9586 19.4025 59.5535C23.1161 58.0894 26.3363 55.4747 28.4138 51.8142C27.3231 51.4482 26.3103 50.5069 25.4533 49.8271C24.3886 48.9904 23.22 48.1276 22.363 47.0556C21.7917 46.3235 19.7661 43.6827 21.3502 43.0029C22.7006 42.4277 24.8041 44.2841 25.5572 45.1992C26.3623 46.2189 27.3231 47.2386 27.9723 48.3629C28.3619 49.0427 28.9072 49.6441 29.1669 50.3762C30.3875 47.7877 31.1406 45.0162 31.5041 42.1924C31.4782 42.1924 31.4782 42.1924 31.4522 42.1924C31.4262 42.1924 31.3743 42.1662 31.3483 42.1662C31.1406 42.114 31.0367 41.8525 31.0886 41.6695C31.1146 41.6433 31.1146 41.591 31.1406 41.5649C30.7251 41.591 30.2836 41.5126 29.8941 41.408C28.5177 41.0943 27.1154 40.6236 25.8169 40.0484C24.7002 39.5255 22.0514 37.8783 22.9603 36.231C23.8173 34.6623 26.622 36.5187 27.5309 37.0939C28.6735 37.826 29.7642 38.7411 30.8549 39.5516C31.1665 39.7869 31.5041 39.9961 31.7119 40.2837C31.9456 36.937 31.634 33.5118 30.9069 30.2435C29.972 31.0018 27.9204 30.7142 26.9595 30.5573C25.7909 30.3743 23.0123 29.6683 22.4669 28.361C21.8696 26.8707 24.5704 26.7661 25.3754 26.8968C26.4921 27.0537 27.5309 27.5243 28.5437 27.9688C29.1669 28.2564 29.8681 28.4656 30.5173 28.7271C30.4134 28.2826 30.2836 27.8642 30.1537 27.4197C29.6344 25.6941 29.0111 23.9946 28.284 22.3473C28.1801 22.3473 28.1022 22.3212 28.0243 22.2689C27.1154 23.1579 25.4014 23.6024 24.3626 23.6547C23.2719 23.7331 20.727 23.4455 20.3374 22.0597C19.9479 20.6478 22.1553 20.7001 22.9603 20.7524C24.1549 20.8047 25.3754 20.8309 26.57 20.9877C26.9336 21.04 27.375 21.0662 27.7646 21.1708C26.9855 19.4713 26.1026 17.7979 25.1677 16.1768C24.8301 15.6016 24.5185 15.0525 24.1809 14.5035C24.1289 14.4773 24.077 14.4512 24.051 14.3989C24.025 14.3727 23.9991 14.3466 23.9731 14.2943C23.8952 14.2681 23.8433 14.242 23.7654 14.1897C23.7394 14.1635 23.7134 14.1636 23.7134 14.1374C23.6874 14.1113 23.6615 14.0851 23.6615 14.0851C22.9084 14.7388 21.4022 14.8434 20.5711 14.9218C19.5064 15.0002 17.8184 15.2617 17.351 13.9544C16.5459 11.6535 21.2723 12.464 23.194 12.9347C22.7266 12.2026 22.2332 11.4966 21.7138 10.8168C20.675 9.43107 19.4025 8.25449 18.2599 6.97332C18.182 6.99946 18.1041 7.02561 18.0262 7.05175C17.8963 7.0779 17.7925 7.05176 17.6886 6.97332C16.52 7.62697 14.9878 7.99302 13.7673 7.88844C13.0142 7.81 11.1703 7.05175 11.3781 6.0059C11.5599 5.11693 13.1959 5.45683 13.7673 5.45683C13.8192 5.45683 13.8711 5.45683 13.8971 5.45683C13.2219 5.06464 12.5727 4.56785 11.9234 3.99263C11.1184 3.28668 9.19669 1.58718 10.4432 0.436739C11.7676 -0.765992 13.9231 0.802784 14.9359 1.69176C15.7409 2.42386 16.2862 3.36512 16.9874 4.17566C17.0653 4.2541 17.1432 4.35869 17.2471 4.46328C17.2211 4.07108 17.2471 3.70503 17.2731 3.31283C17.2991 2.45 17.2731 1.95323 17.8184 1.27342C18.3638 0.593619 19.3246 -0.216926 20.2335 0.332147C21.2723 0.985804 20.9867 2.94679 20.6231 3.88805C20.2595 4.77703 19.7142 5.92746 18.9091 6.58112C20.4932 8.38522 22.1553 10.0586 23.5316 12.098C23.6874 12.3333 23.8433 12.5948 24.025 12.8301C23.9731 12.4118 23.9212 11.9934 23.9731 11.6012C24.077 10.6599 24.3367 9.82327 24.6223 8.90815C24.9859 7.75771 25.7909 6.37195 27.1673 7.15634C28.3619 7.83615 28.232 9.64025 27.8425 10.7384C27.2971 12.3333 26.2324 13.353 24.8301 14.059C25.8948 15.7585 26.8816 17.5364 27.7646 19.3405C27.8685 19.5235 27.9464 19.7066 28.0243 19.8896C28.1541 18.4254 28.4138 16.9351 29.063 15.7062C29.6084 14.7126 30.8809 13.6668 31.8677 14.7649C32.7766 15.7846 32.3351 17.641 31.7119 18.6607C31.0886 19.6543 30.3096 20.4648 29.5565 21.3538C29.3747 21.563 29.1929 21.7983 28.9851 21.9813C29.8421 23.9161 30.5692 25.9294 31.1406 27.9688C31.2704 27.6812 31.4262 27.3936 31.634 27.1321C32.2832 26.2954 32.8286 25.1712 33.6336 24.4652C34.6204 23.6024 36.5162 23.7592 36.4383 25.4065C36.3344 27.2106 35.4514 29.1192 33.7634 29.9559C33.3739 30.139 32.491 30.5573 31.8158 30.5834C32.1274 32.0215 32.3611 33.4857 32.5169 34.9499C32.6727 36.5709 32.6987 38.2705 32.5948 39.97C32.6468 39.9438 32.6728 39.8915 32.7247 39.8654C33.5557 39.1594 34.2828 38.2443 35.1918 37.6691C36.1786 37.0416 38.334 36.7017 38.8793 38.1136C39.3728 39.3947 38.308 40.5975 37.2693 41.1204C36.3344 41.591 35.2956 41.8263 34.2309 41.8786C33.6855 41.9048 33.0103 41.9571 32.4131 41.8786C32.0235 45.0423 31.1665 48.206 29.7902 51.056C29.8161 51.056 29.8681 51.0821 29.8941 51.0821C30.2836 50.9253 30.7251 50.7161 30.9588 50.5854C31.5301 50.3239 32.0495 49.984 32.6468 49.7487C33.7115 49.3303 34.8022 49.0427 35.9448 48.912C37.0096 48.7813 39.8922 48.5982 39.996 50.2455C40.0999 52.0234 37.0356 52.6771 35.789 52.6248C34.4127 52.5725 33.0623 52.4156 31.6859 52.1803C31.1406 52.1019 30.5692 52.0234 30.0239 51.9188C29.7642 51.9973 29.5045 52.0496 29.2708 52.0496C27.8685 54.5596 26.0247 56.782 23.6355 58.4031C22.7266 59.0306 21.6619 59.6058 20.5452 60.1026C21.6878 60.5994 22.7266 61.1485 23.6355 61.8021C25.9987 63.4494 27.8685 65.6456 29.2708 68.1557C29.5305 68.1557 29.7902 68.208 30.0239 68.2864C30.5692 68.1818 31.1406 68.1034 31.6859 68.025C33.0363 67.7896 34.4127 67.6328 35.789 67.5805C37.0356 67.5282 40.1259 68.1818 39.996 69.9598C39.8922 71.5809 37.0096 71.3978 35.9448 71.2932C34.8282 71.1625 33.7115 70.8749 32.6468 70.4566C32.0495 70.2213 31.5301 69.9075 30.9588 69.6199C30.6991 69.4891 30.2836 69.28 29.8941 69.1231C29.8681 69.1231 29.8161 69.1493 29.7902 69.1493C31.1925 71.9731 32.0495 75.1368 32.4131 78.3266C33.0363 78.2482 33.6855 78.3005 34.2309 78.3266C35.2697 78.3789 36.3084 78.6142 37.2693 79.0849C38.308 79.6078 39.3728 80.8105 38.8793 82.0917C38.334 83.4774 36.1786 83.1637 35.1918 82.5362C34.2828 81.9609 33.5557 81.0197 32.7247 80.3399C32.6728 80.3137 32.6468 80.2614 32.5948 80.2353C32.6987 81.9348 32.6727 83.6343 32.5169 85.2554C32.3611 86.7196 32.1274 88.1838 31.8158 89.6218C32.491 89.648 33.3739 90.0663 33.7635 90.2493C35.4514 91.0599 36.3344 92.9686 36.4383 94.7988C36.5421 96.4199 34.6204 96.5767 33.6336 95.7401C32.8286 95.0341 32.3092 93.9098 31.634 93.0731C31.4262 92.8117 31.2704 92.5241 31.1406 92.2364C30.5692 94.2759 29.8421 96.263 28.9851 98.224C29.1929 98.407 29.3747 98.6423 29.5565 98.8515C30.3096 99.7404 31.0886 100.551 31.7119 101.545C32.3611 102.564 32.8026 104.421 31.8677 105.44C30.8809 106.538 29.6084 105.493 29.063 104.499C28.4138 103.27 28.1541 101.78 28.0243 100.316C27.9464 100.499 27.8425 100.682 27.7646 100.865C26.8557 102.669 25.8688 104.421 24.8301 106.146C26.2584 106.852 27.2971 107.872 27.8425 109.467C28.232 110.565 28.3619 112.395 27.1673 113.049C25.7909 113.833 24.9859 112.421 24.6223 111.297C24.3367 110.408 24.103 109.545 23.9731 108.604C23.9212 108.186 23.9731 107.767 24.025 107.375C23.8692 107.61 23.7134 107.872 23.5316 108.107C22.1553 110.147 20.4933 111.794 18.9091 113.624C19.7142 114.278 20.2595 115.402 20.6231 116.317C21.0126 117.258 21.2983 119.219 20.2336 119.873C19.3246 120.187 18.3638 119.402 17.8184 118.723ZM14.6502 2.47615C13.949 1.79634 12.7545 0.802793 11.7417 0.802793C9.94979 0.776647 11.7936 2.81605 12.3649 3.31283C13.8971 4.67244 15.4552 5.6137 17.4808 5.82287C17.2211 5.40453 16.4421 4.80318 16.2862 4.59401C15.7149 3.88806 15.2994 3.10366 14.6502 2.47615ZM19.6882 3.96649C19.9479 3.46971 20.2076 2.68533 20.1037 2.11011C19.896 1.03811 19.013 1.03811 18.4677 1.71791C17.9742 2.37157 17.9742 3.31283 18.0002 4.12336C18.0262 4.67243 18.1301 5.22152 18.3118 5.7183C18.3378 5.77059 18.3638 5.84903 18.3897 5.90132C18.3897 5.90132 18.3897 5.92746 18.4157 5.92746C18.987 5.43068 19.4025 4.54171 19.6882 3.96649ZM12.5987 6.16279C12.0014 6.24123 12.261 6.34581 12.8064 6.71185C13.5076 7.15634 14.1828 7.07791 14.9359 6.94718C15.1956 6.89488 15.9227 6.7903 16.52 6.63342C15.2475 6.31966 13.949 5.97976 12.5987 6.16279ZM26.8037 11.0783C27.1154 10.4769 27.3231 9.79712 27.2971 9.11732C27.2971 8.93429 27.2712 8.28063 27.0894 8.1499C26.6219 8.1499 26.1545 8.17604 25.6871 8.17604C25.6091 8.35906 25.5313 8.56824 25.4533 8.75126C25.1157 9.74482 24.8301 10.8168 24.7781 11.8627C24.7522 12.281 24.8041 12.6994 24.8041 13.1438C25.6351 12.6471 26.3363 12.0196 26.8037 11.0783ZM22.9084 13.6145C22.1553 13.3792 21.3502 13.2223 20.5711 13.17C20.1556 13.1438 19.7401 13.1438 19.3506 13.1438C18.7274 13.17 18.3118 13.0131 18.5975 13.6929C18.8312 14.3204 19.2208 14.1636 19.844 14.1374C20.3115 14.1374 20.7789 14.0851 21.2204 14.0328C21.6099 13.9805 22.4149 13.9021 22.9084 13.6145ZM29.8161 19.785C30.6991 18.896 31.8937 17.3011 31.5301 15.9415C31.1665 14.608 29.946 15.5493 29.6084 16.2814C29.3747 16.7782 29.2708 17.3795 29.1409 17.9025C28.8812 18.9745 28.7774 20.0465 28.6995 21.1446C29.115 20.7263 29.6084 20.0203 29.8161 19.785ZM27.3491 21.8244C26.6479 21.6414 25.6871 21.6675 25.0898 21.6414C24.2328 21.5891 22.6747 21.2231 21.8177 21.5368C20.7529 21.929 21.8696 22.4519 22.363 22.635C23.1681 22.9226 24.025 22.9487 24.882 22.7918C25.4793 22.7395 26.6739 22.3735 27.3491 21.8244ZM33.7375 28.9624C34.7503 28.3087 35.3216 27.2367 35.4255 26.0601C35.5813 25.7725 35.5553 25.4849 35.3476 25.1711C35.3476 24.5698 35.1398 24.4652 34.6724 24.8051C34.127 24.9881 34.0491 25.0143 33.7375 25.4326C33.3739 25.9294 33.0882 26.5046 32.6987 27.0014C32.3351 27.4459 31.9716 27.8642 31.7378 28.361C31.608 28.5963 31.5561 28.8578 31.4782 29.1192C31.4782 29.1454 31.4782 29.1715 31.5041 29.1977C31.634 29.3023 31.66 29.433 31.634 29.5637C31.66 29.5899 31.6859 29.6422 31.7119 29.6945C31.7638 29.9036 33.6076 29.0408 33.7375 28.9624ZM30.4913 29.5899C30.4913 29.5637 30.4913 29.5637 30.4913 29.5899C30.0499 29.4069 29.5824 29.2761 29.1669 29.067C28.5437 28.8055 27.9204 28.4917 27.2971 28.2303C26.6739 27.9688 26.0247 27.7335 25.3754 27.655C24.9339 27.6028 23.7134 27.4459 23.4277 27.8381C22.9343 28.544 25.739 29.433 26.2324 29.5637C26.7518 29.7206 29.8421 30.2958 30.4913 29.5899ZM29.946 39.8131C29.3747 39.3947 28.8033 38.9503 28.232 38.5319C27.401 37.9044 25.5053 36.2833 24.3626 36.4402C22.6746 36.6494 24.5444 38.375 25.0378 38.7149C25.713 39.1594 26.4661 39.4732 27.1933 39.7346C27.9723 40.0223 29.9979 40.9635 31.1146 40.8067C31.1146 40.7805 31.1146 40.7805 31.1146 40.7544C31.0886 40.4929 30.1278 39.9438 29.946 39.8131ZM33.8154 40.9897C34.5165 40.9897 35.2177 40.9112 35.8929 40.7021C36.8018 40.4406 38.6716 39.6039 38.0743 38.2966C37.7367 37.5906 36.4642 37.7737 35.8669 38.0613C35.2697 38.3489 34.8282 38.898 34.3348 39.3686C33.8154 39.8654 33.0623 40.336 32.491 40.9112C32.491 40.9374 32.491 40.9635 32.491 40.9897C32.9324 41.042 33.4518 40.9897 33.8154 40.9897ZM28.3878 50.6377C28.1282 50.0101 27.5049 49.1212 27.2712 48.729C26.7258 47.8139 25.9468 47.0295 25.3235 46.1928C24.6743 45.3561 23.4797 43.8919 22.2851 43.8396C21.8696 43.5782 21.7138 43.7089 21.8436 44.2057C21.7398 44.4933 21.7917 44.7547 21.9994 44.9901C22.1553 45.33 22.389 45.696 22.5967 45.9836C23.1161 46.7942 23.7654 47.3955 24.4925 48.023C25.5053 48.912 26.9076 50.3239 28.3099 50.9253C28.284 50.8207 28.3099 50.7161 28.3878 50.6377ZM37.9185 51.2913C38.4639 51.0037 39.4507 50.6115 38.5937 49.7487C38.36 49.5134 37.6848 49.5395 37.3991 49.5395C35.5813 49.4349 33.6076 49.984 31.9975 50.8207C31.7379 50.9514 31.4782 51.1083 31.1925 51.2652C31.5301 51.3175 31.8677 51.3436 32.1793 51.3959C33.0623 51.5266 33.9712 51.6312 34.8541 51.7097C35.9448 51.7358 36.9317 51.7881 37.9185 51.2913ZM10.0277 59.1875C8.88507 59.3182 7.79437 59.5797 6.75561 59.998C7.79437 60.4164 8.91104 60.6779 10.0277 60.8086C12.8064 61.0962 15.5851 60.8347 18.182 59.998C15.6111 59.1614 12.8324 58.8738 10.0277 59.1875ZM31.9975 69.1754C33.6076 70.0121 35.5813 70.535 37.3991 70.4566C37.6848 70.4304 38.36 70.4827 38.5937 70.2474C39.4507 69.3584 38.4639 68.9662 37.9185 68.7048C36.9057 68.1818 35.9189 68.2603 34.8541 68.3387C33.9452 68.391 33.0623 68.4956 32.1793 68.6525C31.8677 68.7048 31.5301 68.7309 31.1925 68.7832C31.4782 68.8878 31.7379 69.0447 31.9975 69.1754ZM28.284 69.0447C26.9076 69.646 25.5053 71.0841 24.4665 71.9469C23.7394 72.5744 23.0902 73.1758 22.5708 73.9863C22.389 74.3001 22.1293 74.6661 21.9735 74.9799C21.7657 75.2152 21.7138 75.4767 21.8177 75.7643C21.6878 76.261 21.8436 76.3656 22.2591 76.1303C23.4537 76.0519 24.6483 74.6138 25.2975 73.7772C25.9468 72.9405 26.6999 72.1561 27.2452 71.241C27.4789 70.8488 28.1022 69.9598 28.3619 69.3323C28.3099 69.2538 28.284 69.1493 28.284 69.0447ZM27.1933 80.2353C26.4402 80.4968 25.6871 80.8105 25.0378 81.255C24.5444 81.5687 22.7006 83.3206 24.3626 83.5297C25.4793 83.6866 27.401 82.0655 28.232 81.438C28.8033 80.9935 29.3747 80.5752 29.946 80.1569C30.1278 80.0261 31.0886 79.477 31.1146 79.2156C31.1146 79.1894 31.1146 79.1894 31.1146 79.1633C29.9979 79.0064 27.9723 79.9477 27.1933 80.2353ZM34.3088 80.5752C34.7762 81.0458 35.2177 81.5688 35.841 81.8825C36.4383 82.1701 37.7108 82.3793 38.0484 81.6472C38.6716 80.366 36.8018 79.5293 35.8669 79.2417C35.1917 79.0326 34.4906 78.9541 33.7894 78.9541C33.4258 78.9541 32.9065 78.9018 32.465 78.928C32.465 78.9541 32.465 78.9803 32.465 79.0064C33.0363 79.6078 33.8154 80.0784 34.3088 80.5752ZM26.2324 90.3801C25.739 90.5108 22.9343 91.4259 23.4277 92.1057C23.7134 92.4979 24.934 92.341 25.3754 92.2887C26.0506 92.1841 26.6999 91.975 27.2971 91.7135C27.9204 91.4521 28.5437 91.1645 29.1669 90.8768C29.5824 90.6938 30.0758 90.5631 30.4913 90.3801C30.4913 90.3801 30.4913 90.3801 30.4913 90.3539C29.8421 89.648 26.7518 90.2232 26.2324 90.3801ZM32.6987 92.9424C33.0882 93.4392 33.3739 93.9882 33.7375 94.5112C34.0491 94.9295 34.127 94.9818 34.6724 95.1387C35.1398 95.4786 35.3735 95.374 35.3476 94.7726C35.5553 94.485 35.5813 94.1974 35.4255 93.8837C35.3216 92.6809 34.7503 91.6351 33.7375 90.9814C33.6076 90.903 31.7638 90.0402 31.6859 90.2493C31.66 90.3016 31.634 90.3539 31.608 90.3801C31.634 90.5108 31.608 90.6415 31.4782 90.7461C31.4782 90.7723 31.4782 90.7984 31.4522 90.8246C31.5301 91.086 31.608 91.3213 31.7119 91.5828C31.9716 92.1057 32.3351 92.4979 32.6987 92.9424ZM25.0898 98.3024C25.6871 98.2762 26.622 98.3024 27.3491 98.1194C26.6739 97.5964 25.4793 97.2304 24.908 97.1258C24.051 96.9951 23.194 97.0212 22.389 97.2827C21.8956 97.4396 20.7529 97.9886 21.8436 98.3808C22.7006 98.7207 24.2328 98.3547 25.0898 98.3024ZM29.1409 102.067C29.2708 102.59 29.4006 103.192 29.6084 103.689C29.946 104.421 31.1406 105.362 31.5301 104.028C31.9196 102.669 30.6991 101.074 29.8161 100.185C29.6084 99.9758 29.089 99.2437 28.6995 98.8515C28.7774 99.9235 28.8813 100.995 29.1409 102.067ZM20.5711 106.774C21.3762 106.721 22.1553 106.565 22.9084 106.329C22.415 106.068 21.6099 105.963 21.2204 105.911C20.7529 105.859 20.2855 105.806 19.844 105.806C19.2208 105.78 18.8312 105.623 18.5975 106.251C18.3378 106.931 18.7533 106.774 19.3506 106.8C19.7402 106.8 20.1556 106.8 20.5711 106.774ZM24.7781 108.107C24.8301 109.179 25.1158 110.225 25.4533 111.219C25.5313 111.402 25.6092 111.611 25.6871 111.794C26.1545 111.794 26.622 111.82 27.0894 111.82C27.2452 111.689 27.2712 111.036 27.2971 110.853C27.3231 110.173 27.1154 109.493 26.8037 108.892C26.3363 107.95 25.6351 107.323 24.8041 106.826C24.8041 107.244 24.7522 107.689 24.7781 108.107ZM16.5459 113.31C15.9227 113.153 15.2215 113.049 14.9618 112.997C14.2087 112.866 13.5335 112.787 12.8324 113.232C12.287 113.598 12.0273 113.703 12.6246 113.781C13.949 113.964 15.2475 113.624 16.5459 113.31ZM12.3649 116.631C11.7936 117.128 9.9498 119.167 11.7417 119.141C12.7545 119.141 13.949 118.147 14.6502 117.468C15.2994 116.814 15.7149 116.056 16.2863 115.35C16.4421 115.167 17.2211 114.539 17.4808 114.121C15.4552 114.356 13.8971 115.271 12.3649 116.631ZM20.0777 117.86C20.1816 117.258 19.9219 116.5 19.6622 116.003C19.3766 115.428 18.9611 114.539 18.3898 114.042C18.3898 114.042 18.3897 114.069 18.3638 114.069C18.3378 114.121 18.3118 114.199 18.2859 114.252C18.1041 114.748 18.0002 115.324 17.9742 115.847C17.9483 116.657 17.9483 117.598 18.4417 118.252C18.987 118.932 19.896 118.906 20.0777 117.86Z" fill="#daa520"/>
</svg>
