<svg width="455" height="337" viewBox="0 0 455 337" fill="none" xmlns="http://www.w3.org/2000/svg">
<path opacity="0.5" d="M19.2688 26.9688C20.5857 30.8115 22.5396 31.9366 25.523 34.0142C26.8924 35.0448 28.1668 36.0138 29.6458 36.831C29.0467 37.0115 28.5972 37.1468 28.0529 37.2207C23.5338 38.1315 19.1139 38.1103 14.7004 39.8011C9.29318 41.7011 -0.915437 47.0325 0.655109 55.3088C2.14542 63.2485 12.4302 59.2472 16.6939 57.6016C20.1538 56.2884 23.2339 54.7287 26.179 52.9392C26.0693 53.1527 25.9596 53.3661 25.9047 53.4729C24.6982 55.8209 20.0087 61.7441 22.853 64.5853C26.2121 67.9027 32.8595 62.1112 34.7348 59.2008C37.6374 54.5377 39.5987 47.2717 39.693 40.9292C40.1424 40.7938 40.5115 40.3217 40.6907 39.7265C40.7603 39.3447 40.83 38.963 40.8996 38.5812C47.965 36.9031 54.9249 34.445 62.1508 33.4401C65.7163 32.9069 69.3218 32.542 72.9675 32.3454C67.1051 39.0731 54.2753 56.6499 64.3307 58.7613C70.0652 59.9197 72.6806 52.3665 74.6443 47.8059C76.1145 44.2059 79.0105 37.8308 78.1323 33.1343C78.2821 33.0892 78.3772 33.1508 78.432 33.0441C78.5818 32.9989 78.6366 32.8922 78.7315 32.9537C79.086 32.7567 79.3856 32.6665 79.5501 32.3463C79.6999 32.3012 79.8497 32.2561 80.0944 32.2725C80.3392 32.289 80.5437 32.137 80.7483 31.9852C83.4552 31.8911 86.257 31.8587 88.909 31.8713C96.77 31.8477 104.711 32.1608 112.528 32.9623C111.326 34.3169 110.298 36.0696 109.341 37.4406C106.248 41.9806 103.576 46.9352 100.863 51.7215C99.0678 54.9685 94.1213 63.8556 100.071 65.5806C105.871 67.3507 112.345 57.4621 114.364 52.7948C116.272 48.3409 118.278 40.2498 117.064 34.4818C117.419 34.2848 117.733 33.9195 117.898 33.5993C125.415 34.4911 132.903 35.933 140.266 37.8634C142.059 38.3152 143.948 38.8286 145.781 39.4487C143.46 41.501 141.125 43.8284 138.859 45.774C135.012 48.8277 131.109 51.9882 128.276 56.2696C126.196 59.3318 120.872 70.6779 127.45 71.6722C133.295 72.6171 141.781 62.7534 144.914 58.3818C147.513 54.8024 152.89 47.0484 152.111 41.42C165.609 46.192 178.556 53.0248 190.27 61.7622C188.787 61.9385 187.314 62.8333 185.802 63.5597C180.46 66.0714 174.929 68.4599 169.857 71.4314C165.849 73.8119 153.184 80.9656 157.071 88.1831C161.133 95.7988 172.709 88.7927 176.966 85.4352C181.892 81.5154 186.468 76.7991 190.514 71.8815C191.716 70.527 192.933 68.8974 193.716 67.1282C193.756 67.2965 193.946 67.4197 193.986 67.588C194.486 68.3393 195.71 68.4216 196.338 67.6909C196.393 67.5842 196.598 67.4323 196.653 67.3256C196.708 67.2188 196.708 67.2188 196.762 67.1121C206.249 75.2581 214.668 84.9885 221.545 95.9955C218.338 95.3382 215.057 96.0562 211.711 96.1625C206.257 96.1824 200.525 97.7292 195.122 98.6358C190.263 99.4685 179.08 103.741 178.262 110.752C177.385 118.864 191.253 116.76 195.118 116.136C200.765 115.246 206.421 112.369 211.708 109.964C215.987 108.043 221.544 106.098 225.176 102.478C234.136 119.532 236.83 138.926 234.25 157.744C219.245 171.917 206.672 192.934 205.103 213.973C195.909 220.532 185.004 223.277 173.733 219.096C158.795 213.675 146.173 200.792 143.84 182.913C141.441 164.423 146.697 143.356 163.091 135.349C171.663 131.232 180.608 132.054 187.158 140.003C193.382 147.598 196.263 158.005 192.986 167.833C192.229 170.045 195.366 171.084 196.123 168.872C201.04 154.131 193.231 134.835 179.543 129.94C165.514 124.967 151.021 136.911 144.655 150.285C138.275 163.934 138.222 183.253 144.312 197.023C151.358 213.12 169.738 224.9 185.569 224.64C192.751 224.46 199.207 222.244 205.097 218.665C205.188 226.124 206.708 233.514 210.256 240.653C217.876 256.127 236.24 268.182 252.171 266.989C265.885 265.924 280.694 256.32 288.024 243.287C295.245 230.467 297.205 210.393 286.262 199.168C275.645 188.296 256.923 190.239 247.964 202.5C246.637 204.343 249.007 206.877 250.334 205.033C256.324 196.824 265.787 194.424 274.698 196.789C284.1 199.188 289.261 207.374 290.319 217.88C292.345 237.835 278.639 253.421 263.283 260.394C248.336 267.063 232.094 261.223 220.447 249.399C211.684 240.584 208.252 228.539 208.711 216.313C224.143 204.266 234.056 181.525 237.478 159.838C250.638 148.025 266.933 140.949 284.613 141.034C283.639 146.379 284.918 152.758 285.577 157.882C286.366 164.228 287.032 171.064 289.115 177.111C290.567 181.183 295.878 195.729 301.693 190.82C306.633 186.625 304.334 173.607 302.602 168.356C300.599 162.646 298.925 156.295 296.214 150.978C294.568 147.776 293.536 144.118 291.425 141.326C303.403 142.407 315.058 145.841 326.08 150.998C326.025 151.105 326.025 151.105 325.97 151.212C325.915 151.318 325.9 151.594 325.845 151.7C325.597 152.677 326.327 153.72 327.101 153.938C327.251 153.893 327.441 154.016 327.59 153.971C326.618 155.617 325.971 157.616 325.528 159.463C323.76 165.859 322.508 172.731 321.855 179.422C321.395 185.243 321.783 200.01 329.684 200.155C337.191 200.328 336.372 184.428 336.203 179.338C335.958 172.917 334.938 166.279 334.298 159.887C334.102 158.052 334.055 156.172 333.449 154.641C346.096 161.564 357.876 170.913 368.209 181.6C363.481 183.656 360.193 192.765 358.733 197.083C356.93 202.317 353.625 215.4 357.221 220.721C361.371 226.686 367.455 215.833 368.68 212.217C370.469 207.258 370.954 201.88 371.478 196.671C371.75 193.432 372.471 190.057 372.893 186.773C374.288 188.247 375.533 189.766 376.872 191.347C382.042 197.546 386.897 204.111 391.343 210.98C391.124 211.407 391.054 211.788 391.08 212.232C385.932 213.873 380.698 219.87 378.315 224.016C375.726 228.314 371.396 239.451 375.606 244.316C379.91 249.243 384.382 240.048 385.892 236.616C388.225 231.583 390.708 226.506 392.661 221.227C393.239 219.609 394.076 217.733 394.519 215.886C399.045 223.091 403.257 230.662 407.17 238.322C408.545 241.065 409.881 243.639 411.162 246.32C411.147 246.595 411.133 246.87 411.268 247.1C411.308 247.268 411.348 247.437 411.483 247.666C411.413 248.048 411.399 248.323 411.424 248.767C411.464 248.935 411.409 249.042 411.504 249.103C411.544 249.272 411.584 249.44 411.584 249.44C407.62 250.995 404.06 256.939 402.02 260.17C399.486 264.361 394.972 270.682 398.732 275.683C405.387 284.411 412.425 263.078 414.775 254.071C416.446 257.717 417.968 261.407 419.339 265.143C422.178 272.677 423.763 280.678 426.002 288.392C425.743 288.651 425.483 288.909 425.224 289.168C424.855 289.64 424.73 290.128 424.796 290.74C419.954 294.003 415.389 299.438 413.191 304.7C411.886 307.98 410.745 317.344 414.982 318.954C418.594 320.301 420.815 312.776 422.021 310.428C422.131 310.215 422.241 310.001 422.296 309.895C422.294 313.593 422.727 317.432 423.445 321.455C424.308 326.427 426.421 338.328 433.231 335.915C440.396 333.305 439.251 320.751 438.162 314.494C437.203 309.461 434.937 305.003 433.474 300.212C433.354 299.707 433.139 299.14 432.978 298.467C434.348 299.498 435.732 300.253 437.211 301.07C440.399 302.996 442.148 304.273 445.768 303.633C449.389 302.993 454.361 300.954 454.287 295.925C454.107 290.116 446.383 286.67 442.197 285.947C438.201 285.348 432.871 284.879 428.798 286.648C425.592 275.887 423.025 265.115 418.526 254.654C418.001 253.46 417.38 252.203 416.91 250.902C418.319 252.101 419.729 253.3 421.262 254.01C424.9 255.801 428.487 256.704 432.413 257.686C437.358 258.902 444.091 258.857 444.149 251.353C444.203 244.842 437.378 241.126 432.567 240.14C425.624 238.625 419.672 240.598 414.147 244.699C410.224 236.32 405.852 228.076 401.165 220.197C400.72 219.339 400.22 218.588 399.72 217.837C405.311 220.752 411.271 223.195 417.105 223.422C421.865 223.521 428.35 220.755 426.446 214.113C424.663 207.975 416.989 205.416 411.97 205.576C407.046 205.797 402.457 207.089 397.639 208.09C396.495 208.345 395.257 208.538 394.153 208.96C388.937 200.881 383.162 193.15 376.963 185.998C378.281 186.142 379.655 186.179 381.043 185.941C385.452 185.243 390.687 185.651 394.95 184.005C400.168 181.982 403.602 173.821 397.455 170.261C390.685 166.438 381.889 165.571 375.286 170.537C373.799 171.707 370.415 174.35 368.894 177.064C364.33 172.395 359.507 167.986 354.519 163.896C348.961 159.438 342.844 155.327 336.453 151.751C336.658 151.599 336.903 151.615 337.107 151.464C341.426 149.711 346.285 148.879 350.293 146.498C354.656 143.921 360.442 135.863 356.467 130.296C352.856 125.25 346.24 126.793 342.148 129.83C338.464 132.563 335.416 136.278 332.977 140.531C331.731 142.711 330.115 145.362 329.138 148.002C316.827 142.15 303.529 138.22 290.273 137.163C290.328 137.057 290.343 136.781 290.397 136.675C291.79 135.443 293.482 134.122 294.45 133.469C296.606 131.737 298.937 130.403 301.053 128.503C304.821 125.112 308.169 121.307 311.057 116.919C313.78 112.851 320.532 101.435 314.77 97.1283C308.533 92.5133 299.688 103.567 297.245 108.814C294.528 114.593 292.246 120.513 290.194 126.724C289.327 129.15 288.405 131.683 287.633 134.17C286.8 135.053 286.062 135.997 285.568 136.957C273.492 136.808 261.528 139.15 250.595 145.151C246.397 147.408 242.06 150.429 237.897 153.848C238.507 147.982 238.706 142.419 238.252 137.144C237.261 123.552 233.235 110.694 227.081 99.0177C227.63 97.9504 227.988 96.7599 228.197 95.6145C229.728 93.6196 231.22 91.4564 232.656 89.3998C236.363 84.4043 239.839 79.1172 242.936 73.5838C245.758 68.5841 249.911 54.3436 243.18 50.6891C237.074 47.2974 231.651 59.5754 229.782 64.1976C227.899 69.0949 226.585 74.3617 225.856 79.723C225.449 82.7321 225.491 85.6057 225.329 88.6313C225.255 90.0065 225.137 92.2068 224.884 94.1773C224.83 94.284 224.625 94.4359 224.57 94.5427C217.277 82.1276 207.599 71.153 196.783 62.1448C198.384 59.7681 199.565 56.9767 200.622 54.6738C202.626 50.2815 203.965 45.4581 204.285 40.4005C204.58 34.8996 202.461 27.6906 196.767 26.7005C190.583 25.6775 187.17 35.275 187.365 40.8088C187.534 45.8993 189.417 51.105 190.13 56.1216C190.116 56.3967 190.251 56.6266 190.236 56.9016C184.284 52.4713 178.057 48.5747 171.842 45.3965C166.196 42.5878 160.385 40.0992 154.505 37.9925C155.836 35.156 156.181 30.5418 156.339 28.5097C156.961 19.6631 151.894 11.5382 145.467 6.79997C139.8 2.55444 135.172 10.0828 136.126 16.1094C136.99 21.0809 139.976 25.8638 141.588 30.6097C142.099 32.0794 142.814 33.3973 143.584 34.6084C134.972 32.1524 126.22 30.4599 117.29 29.3626C117.064 28.0777 116.593 26.7762 116.217 25.5364C114.58 20.3472 113.282 15.2361 110.99 10.3342C108.658 5.26394 102.849 -0.923305 97.1719 0.51689C91.1001 1.98576 92.2106 9.67903 94.6669 14.2607C97.7583 19.8237 102.622 24.4017 107.665 28.3844C106.835 28.2734 105.951 28.2692 105.122 28.1582C96.6515 27.644 88.2059 27.5731 79.7457 27.7772C80.1986 20.2442 78.6894 13.5731 74.0494 7.5748C70.8843 3.3871 64.5123 -1.45788 59.6159 1.91186C53.8608 5.72073 57.2877 12.3552 60.6026 16.4977C63.2275 19.7658 65.8672 22.7589 69.011 25.5098C70.4205 26.7087 72.0493 27.4806 73.5832 28.191C72.3996 28.2771 71.121 28.3016 69.8826 28.4943C59.5701 29.3469 50.0785 32.2973 40.0868 34.4964C39.4133 29.648 36.4824 24.7584 33.927 21.1086C31.3316 17.2904 24.8138 11.497 20.1916 14.3331C17.1327 17.3295 17.9519 23.1262 19.2688 26.9688ZM434.71 313.821C435.698 318.304 436.783 325.554 434.644 329.716C430.955 337.142 427.443 324.76 426.845 321.242C425.144 311.742 425.017 303.121 428.535 294.304C429.505 296.357 430.044 300.975 430.474 302.108C431.831 306.119 433.802 309.674 434.71 313.821ZM439.938 289.605C442.29 289.708 445.687 290.488 447.556 292.27C451.01 295.649 449.146 299.278 445.525 299.918C442.11 300.406 438.692 298.189 435.803 296.173C433.864 294.773 432.09 293.052 430.67 291.135C430.534 290.905 430.304 290.613 430.169 290.384C430.169 290.384 430.074 290.322 430.129 290.215C433.14 289.037 437.246 289.424 439.938 289.605ZM416.99 313.568C415.444 315.838 415.612 314.524 415.435 311.421C415.301 307.492 417.012 304.902 419.077 302.115C419.816 301.171 421.731 298.429 423.562 296.343C422.014 302.312 420.506 308.449 416.99 313.568ZM429.139 243.609C431.981 243.745 434.888 244.492 437.302 246.2C437.967 246.631 440.286 248.278 440.377 249.333C439.389 251.254 438.307 253.114 437.32 255.035C436.491 254.924 435.567 254.751 434.738 254.64C430.417 253.687 425.921 252.336 422.013 250.086C420.439 249.207 419.03 248.008 417.416 246.961C420.975 244.716 424.734 243.313 429.139 243.609ZM411.703 253.644C410.967 257.293 409.837 260.971 408.381 264.296C407.599 266.066 406.721 267.773 405.898 269.374C404.487 271.874 404.179 273.951 402.314 271.176C400.529 268.737 401.921 267.506 403.332 265.006C404.32 263.085 405.497 261.287 406.619 259.596C407.632 258.118 409.616 254.994 411.703 253.644ZM403.884 210.719C408.977 209.184 417.291 208.032 421.461 212.728C425.535 217.364 419.539 220.163 416.168 219.826C413.87 219.616 411.467 218.626 409.294 217.928C404.853 216.47 400.741 214.372 396.588 212.105C398.985 211.383 402.591 211.018 403.884 210.719ZM391.268 216.054C390.452 219.367 388.328 223.254 387.161 225.77C385.541 229.415 383.58 236.681 380.631 239.464C376.958 242.916 377.417 237.095 377.795 234.636C378.45 230.65 380.165 227.067 382.545 223.914C383.996 221.583 387.848 217.535 391.268 216.054ZM378.839 172.984C383.352 170.362 388.451 170.539 392.943 172.884C394.316 172.921 395.306 173.705 396.007 175.298C398.19 176.715 398.131 177.815 395.91 178.935C394.094 180.745 393.834 181.004 391.657 181.299C389.085 181.623 386.393 181.442 383.766 181.873C381.384 182.32 379.097 182.829 376.8 182.619C375.671 182.598 374.612 182.196 373.498 181.9C373.403 181.839 373.308 181.777 373.268 181.609C373.162 180.829 372.742 180.414 372.213 180.213C372.173 180.045 372.038 179.815 371.903 179.585C371.253 178.879 378.28 173.333 378.839 172.984ZM369.705 184.847C369.8 184.909 369.8 184.909 369.705 184.847C369.437 187.093 368.925 189.322 368.807 191.522C368.44 194.7 368.263 198 367.896 201.178C367.53 204.355 367.013 207.578 365.927 210.43C365.184 212.368 363.176 217.754 361.149 218.004C357.543 218.369 360.238 204.748 360.806 202.412C361.333 199.908 365.77 185.853 369.705 184.847ZM331.429 163.007C331.742 166.34 332.149 169.735 332.462 173.069C332.986 177.962 334.869 189.572 331.886 193.898C327.562 200.343 325.244 188.594 325.051 185.765C324.863 181.943 325.314 178.109 325.901 174.505C326.501 170.625 327.361 160.083 330.289 155.864C330.384 155.925 330.384 155.925 330.479 155.987C331.374 156.709 331.338 161.952 331.429 163.007ZM335.328 144.333C336.809 141.451 338.575 138.754 340.76 136.472C343.629 133.352 350.616 127.639 354.102 133.173C355.953 136.223 352.601 141.022 350.295 142.799C347.989 144.577 345.063 145.098 342.312 146.017C339.411 146.981 336.111 148.968 332.816 149.961C332.721 149.899 332.626 149.837 332.531 149.776C333.274 147.838 334.56 145.827 335.328 144.333ZM288.831 143.912C290.561 146.457 292.473 151.113 293.404 152.997C295.575 157.394 296.778 162.444 298.5 166.976C300.167 171.615 302.961 179.974 300.629 185.007C300.701 187.33 299.897 187.663 298.367 185.959C297.103 185.708 296.263 184.879 295.848 183.471C294.942 182.03 294.107 180.207 293.501 178.675C291.655 174.632 290.842 170.547 290.099 166.08C289.01 159.824 286.844 150.735 287.622 143.555C287.947 143.908 288.381 144.047 288.831 143.912ZM306.585 103.203C308.781 101.639 312.289 98.5074 313.612 104.062C313.973 105.577 312.452 108.29 311.849 109.464C308.39 117.181 302.228 123.999 295.789 128.646C294.766 129.405 293.648 130.103 292.475 130.907C292.998 129.397 293.616 127.947 294.084 126.544C295.474 122.607 297.014 118.625 298.594 114.811C300.802 110.267 302.696 106.088 306.585 103.203ZM219.009 199.229C216.121 203.617 212.868 207.483 209.155 210.767C209.83 205.513 211.239 200.307 213.122 195.41C217.946 183.313 224.764 172.509 233.286 163.807C230.895 176.344 226.071 188.441 219.009 199.229ZM229.137 85.4092C229.499 76.8211 231.768 67.4779 235.892 60.1917C236.59 59.0793 237.826 56.1812 239.174 55.775C244.212 54.347 243.552 59.3265 243.35 62.1837C243.11 67.5779 240.741 71.4489 238.208 75.6399C236.098 79.2523 233.854 82.6346 231.42 85.8938C230.572 87.0514 229.764 88.3773 228.861 89.6416C229.084 88.2212 229.063 86.7844 229.137 85.4092ZM221.769 100.979C216.678 105.219 208.495 107.595 203.168 109.832C199.354 111.342 195.799 112.594 191.759 112.819C190.235 112.827 188.358 113.032 186.889 112.933C185.596 113.233 184.537 112.83 183.712 111.726C181.634 111.089 181.583 110.203 183.315 109.049C186.122 104.324 193.867 102.802 198.277 102.105C202.686 101.408 207.125 100.16 211.6 100.075C213.518 100.038 218.062 99.5707 220.889 99.9816C221.064 100.38 221.389 100.733 221.769 100.979ZM178.828 79.1011C176.289 81.5803 173.559 83.9364 170.574 85.5575C168.392 86.8463 158.137 90.2974 160.887 82.9741C162.676 78.0152 172.621 73.936 176.655 71.9988C179.475 70.6979 182.201 69.3352 184.927 67.9726C185.785 67.5335 189.808 64.878 190.813 65.3872C190.908 65.4488 190.908 65.4488 191.003 65.5104C189.214 70.4692 181.518 76.5768 178.828 79.1011ZM192.621 49.0569C191.899 46.0272 190.933 42.9809 191.11 39.6804C191.327 36.5481 193.254 30.8258 196.626 31.1628C202.595 31.6193 201.684 41.2746 200.754 45.7943C200.088 49.062 198.892 52.1284 197.411 55.0101C196.643 56.5043 195.736 58.762 194.709 60.5148C194.614 60.4532 194.519 60.3916 194.424 60.33C193.447 56.5654 193.383 52.255 192.621 49.0569ZM139.96 59.1529C138.443 60.8728 129.197 70.2439 127.771 66.6147C126.95 64.5168 130.097 59.8701 131.219 58.1789C133.025 55.6503 135.156 53.4748 137.366 51.636C139.632 49.6904 141.993 47.8064 144.353 45.9224C145.895 44.6459 147.412 42.926 148.954 41.6495C148.954 41.6495 148.954 41.6495 149.049 41.7111C150.242 46.0423 141.627 57.3879 139.96 59.1529ZM144.311 26.5418C143.33 23.7707 141.939 21.3032 140.808 18.5772C139.947 16.311 139.922 15.8676 140.504 13.2568C140.257 10.535 141.13 9.82086 143.259 11.3442C144.742 11.1678 145.841 11.7386 146.652 13.118C150.8 16.3781 153.391 21.1898 153.626 26.8919C153.637 27.6104 152.876 37.2205 151.952 37.048C151.707 37.0315 151.462 37.0151 151.313 37.0602C150.893 36.6456 150.363 36.4443 149.709 36.7316C149.614 36.67 149.519 36.6084 149.369 36.6535C148.585 35.7174 147.895 34.843 147.164 33.8002C145.814 31.5011 145.158 29.083 144.311 26.5418ZM108.778 45.1871C110.135 42.7939 112.014 38.8901 114.214 36.3329C114.687 40.3396 113.494 46.1114 112.667 48.7058C111.332 52.5358 109.427 55.9962 106.777 58.6889C105.166 60.3472 100.759 63.7498 101.638 58.3434C102.213 54.0206 106.778 48.5859 108.778 45.1871ZM103.661 19.6685C102.037 17.9031 100.127 15.9528 98.7619 13.9287C96.8164 10.8167 95.9212 3.69005 101.586 5.23025C107.346 6.83202 110.56 15.6052 111.924 21.328C112.244 22.6746 113.806 26.5336 114.407 29.0584C110.679 26.213 107.006 23.261 103.661 19.6685ZM68.4728 43.8026C70.3629 40.6172 72.5778 37.7848 75.0228 35.244C74.9302 37.8878 73.6098 41.4427 72.9771 43.1668C72.1798 45.2111 71.3825 47.2554 70.4502 49.0697C69.2289 51.6928 68.976 53.6633 66.2037 53.1457C63.1866 52.6116 64.6337 51.2734 65.8002 48.7571C66.6228 47.1562 67.5004 45.4486 68.4728 43.8026ZM72.5151 23.3714C68.7319 20.6327 65.5375 16.9951 62.6425 13.2672C62.1424 12.5159 61.5473 11.703 61.0472 10.9517C62.0343 9.03057 62.9266 7.04785 63.9138 5.12675C64.7176 4.79434 67.146 6.22734 67.8655 6.55176C70.389 8.04638 72.4188 10.5016 73.9445 13.1989C76.3753 17.3373 77.1733 21.6971 77.2223 26.2826C75.7032 25.2971 73.9794 24.4636 72.5151 23.3714ZM36.2355 44.9478C35.4889 47.8788 34.3879 51.0068 34.0294 52.1973C32.9137 55.6003 31.7725 58.56 28.6777 60.3946C26.1967 61.7737 25.2685 62.5946 26.2451 59.9551C28.3775 54.0808 32.354 49.5451 36.2355 44.9478ZM15.3475 54.309C12.3369 55.4868 1.03726 58.2605 4.91638 50.9578C7.05527 46.7954 13.1861 44.2264 17.1354 42.9461C20.8802 41.8176 24.5111 41.8961 28.2812 41.211C29.2749 41.0018 33.1989 39.278 35.2665 39.1962C30.1341 46.9667 23.5204 51.2147 15.3475 54.309ZM27.1735 19.716C29.5766 20.7057 31.7816 23.5591 33.0372 25.7966C34.5227 28.3256 36.8734 32.1273 37.4708 35.6455C37.4708 35.6455 37.3759 35.584 37.321 35.6907C37.0763 35.6742 36.7366 35.5961 36.4918 35.5797C34.3039 35.1566 31.9958 34.2285 30.042 33.1034C27.0438 31.3009 23.6258 29.0836 22.2942 25.516C20.9773 21.6733 22.9918 17.9995 27.1735 19.716Z" fill="#F4900C"/>
</svg>
