<svg width="30" height="30" viewBox="0 0 30 30" fill="none" xmlns="http://www.w3.org/2000/svg">
<path d="M24.5412 9.9963C24.5575 10.2151 24.5575 10.4326 24.5575 10.6501C24.5575 17.3063 19.4912 24.9763 10.2325 24.9763C7.38 24.9763 4.73 24.1501 2.5 22.7151C2.905 22.7613 3.295 22.7776 3.71625 22.7776C5.98249 22.783 8.18456 22.0252 9.9675 20.6263C8.91678 20.6073 7.89822 20.2606 7.05405 19.6347C6.20988 19.0088 5.58223 18.1349 5.25875 17.1351C5.57 17.1813 5.8825 17.2126 6.21 17.2126C6.66125 17.2126 7.115 17.1501 7.53625 17.0413C6.39595 16.8111 5.37059 16.193 4.63452 15.2922C3.89845 14.3913 3.49712 13.2634 3.49875 12.1001V12.0376C4.17 12.4113 4.94875 12.6451 5.77375 12.6763C5.08261 12.217 4.5159 11.5938 4.12417 10.8623C3.73245 10.1308 3.52789 9.31362 3.52875 8.4838C3.52875 7.5488 3.7775 6.6913 4.21375 5.9438C5.47892 7.50008 7.05688 8.77326 8.84542 9.68088C10.634 10.5885 12.5932 11.1103 14.5963 11.2126C14.5188 10.8376 14.4712 10.4488 14.4712 10.0588C14.4709 9.39751 14.6009 8.74263 14.8538 8.1316C15.1068 7.52058 15.4776 6.9654 15.9452 6.49779C16.4128 6.03018 16.968 5.65932 17.5791 5.4064C18.1901 5.15349 18.845 5.02348 19.5062 5.0238C20.9562 5.0238 22.265 5.6313 23.185 6.6138C24.3122 6.39583 25.3932 5.98433 26.38 5.39755C26.0043 6.56107 25.2172 7.54768 24.1663 8.17255C25.166 8.05853 26.143 7.79562 27.065 7.39255C26.3764 8.39643 25.5232 9.27673 24.5412 9.9963Z" fill="#F9FAFB"/>
</svg>
